<?xml version="1.0" standalone="no"?>
<!DOCTYPE svg PUBLIC "-//W3C//DTD SVG 1.1//EN" "http://www.w3.org/Graphics/SVG/1.1/DTD/svg11.dtd" >
<svg xmlns="http://www.w3.org/2000/svg">
<metadata>
Created by FontForge 20120731 at Fri Sep  2 14:42:24 2016
 By admin
</metadata>
<defs>
<font id="iconfont" horiz-adv-x="1024" >
  <font-face 
    font-family="iconfont"
    font-weight="500"
    font-stretch="normal"
    units-per-em="1024"
    panose-1="2 0 6 3 0 0 0 0 0 0"
    ascent="896"
    descent="-128"
    x-height="792"
    bbox="34 -161 1195 921.083"
    underline-thickness="50"
    underline-position="-100"
    unicode-range="U+0078-E659"
  />
<missing-glyph horiz-adv-x="374" 
d="M34 0v682h272v-682h-272zM68 34h204v614h-204v-614z" />
    <glyph glyph-name=".notdef" horiz-adv-x="374" 
d="M34 0v682h272v-682h-272zM68 34h204v614h-204v-614z" />
    <glyph glyph-name=".null" horiz-adv-x="0" 
 />
    <glyph glyph-name="nonmarkingreturn" horiz-adv-x="341" 
 />
    <glyph glyph-name="x" unicode="x" horiz-adv-x="1001" 
d="M281 543q-27 -1 -53 -1h-83q-18 0 -36.5 -6t-32.5 -18.5t-23 -32t-9 -45.5v-76h912v41q0 16 -0.5 30t-0.5 18q0 13 -5 29t-17 29.5t-31.5 22.5t-49.5 9h-133v-97h-438v97zM955 310v-52q0 -23 0.5 -52t0.5 -58t-10.5 -47.5t-26 -30t-33 -16t-31.5 -4.5q-14 -1 -29.5 -0.5
t-29.5 0.5h-32l-45 128h-439l-44 -128h-29h-34q-20 0 -45 1q-25 0 -41 9.5t-25.5 23t-13.5 29.5t-4 30v167h911zM163 247q-12 0 -21 -8.5t-9 -21.5t9 -21.5t21 -8.5q13 0 22 8.5t9 21.5t-9 21.5t-22 8.5zM316 123q-8 -26 -14 -48q-5 -19 -10.5 -37t-7.5 -25t-3 -15t1 -14.5
t9.5 -10.5t21.5 -4h37h67h81h80h64h36q23 0 34 12t2 38q-5 13 -9.5 30.5t-9.5 34.5q-5 19 -11 39h-368zM336 498v228q0 11 2.5 23t10 21.5t20.5 15.5t34 6h188q31 0 51.5 -14.5t20.5 -52.5v-227h-327z" />
    <glyph glyph-name="uniE600" unicode="&#xe600;" 
d="M822 833h-620q-35 0 -59.5 -24.5t-24.5 -59.5v-730q0 -35 24.5 -59.5t59.5 -24.5h620q35 0 59.5 24.5t24.5 59.5v730q0 35 -24.5 59.5t-59.5 24.5zM826 12h-628v744h628v-744zM287 329h447v-57h-447v57zM287 216h447v-56h-447v56zM427 511q35 0 59.5 25t24.5 59.5
t-24.5 59.5t-59.5 25t-59.5 -25t-24.5 -59.5t24.5 -59.5t59.5 -25zM567 441q0 23 -24.5 39.5t-59.5 16.5h-112q-35 0 -59.5 -16.5t-24.5 -39.5v-56h280v56z" />
    <glyph glyph-name="uniE601" unicode="&#xe601;" 
d="M938 570q-34 80 -96 142t-142 96q-83 35 -173.5 35t-173.5 -35q-80 -34 -142 -95.5t-95 -142.5q-36 -82 -36 -173t36 -174q33 -80 95 -141.5t142 -95.5q83 -35 173.5 -35t173.5 35q80 34 142 95.5t96 141.5q35 83 35 174t-35 173zM526.5 2q-107.5 0 -198.5 53t-144 144
t-53 198t53 198t144 144t198.5 53t198.5 -53t144 -144t53 -198t-53 -198t-144 -144t-198.5 -53zM525.5 226q-23.5 0 -40 -17t-16.5 -41t16 -41.5t41 -17.5q23 0 40 17t17 42q0 24 -17 41t-40.5 17zM494 286h66l30 380h-126z" />
    <glyph glyph-name="uniE602" unicode="&#xe602;" 
d="M303 447h146v146h-146v-2v-144zM369 549q15 3 26 -5.5t11 -22.5q0 -18 -14.5 -26.5t-29.5 -1.5q-18 9 -16 30.5t23 25.5zM303 319v-144h146v146h-146q-1 0 0 -2zM347 256.5q5 18.5 26 20.5q16 2 26.5 -11t4.5 -30q-6 -15 -22 -17.5t-28 8.5t-7 29.5zM575 591v-144h146
v146h-146q-1 0 0 -2zM641 549q29 5 35 -21q6 -23 -13 -34q-9 -5 -22 -3q-14 2 -20 15t0 26.5t20 16.5zM512 834q-92 0 -175 -35.5t-143.5 -96t-96 -143.5t-35.5 -174.5t35.5 -175t96 -144t143.5 -96t175 -35.5t175 35.5t143.5 96t96 144t35.5 175t-35.5 174.5t-96 143.5
t-143.5 96t-175 35.5zM259 621q4 13 16 16h202q6 -1 10 -4.5t5 -11.5t1.5 -13.5t0 -17t-0.5 -14.5v-111q0 -4 0.5 -14.5t0 -15.5t-1 -12.5t-3.5 -11.5t-7.5 -6t-14 -2.5t-22.5 0t-16 0.5h-107q-5 0 -16 -0.5t-16.5 0t-13.5 1.5t-12 5t-5 10v202zM476 131h-201q-13 4 -16 16
v202q4 12 14 15q6 2 14.5 2t20 -0.5t16.5 -0.5h104q4 0 15.5 0.5t20.5 0.5t15 -2t9 -6.5t4 -12t1.5 -13.5t0 -17t-0.5 -15v-106q0 -4 0.5 -16t0 -17.5t-2 -13.5t-5.5 -11.5t-10 -4.5zM668 131h-48q0 5 -0.5 27t0.5 26h49zM765 149q-3 -14 -16 -18h-35v27q0 22 1 26h50v-35z
M765 290q-1 -4 -1 -30v-31h-145v33q-2 1 -21 1h-23q-1 -11 -1 -65v-67h-27q-6 2 -10 6t-5.5 12t-1.5 14t0.5 17t0.5 16v104q0 5 -0.5 17t-0.5 20.5t2 14.5q1 3 2.5 5.5t5 3.5t5.5 2t7 1.5t8 0.5h8h9h98v-90h46v45q0 38 1 45q11 0 20.5 -0.5t16 -4.5t6.5 -13v-57zM765 422
q-3 -15 -14 -18q-6 -2 -14.5 -2t-20.5 0.5t-16 0.5h-104q-5 0 -17 -0.5t-20.5 -0.5t-14.5 2q-5 2 -8 6.5t-4 12.5t-1.5 14t0 16.5t0.5 14.5v104q0 5 -0.5 16.5t-0.5 17.5t1.5 14t5 12t10.5 5h202q14 -5 16 -18v-197z" />
    <glyph glyph-name="uniE603" unicode="&#xe603;" horiz-adv-x="1304" 
d="M1158 378q-15 0 -25.5 -11t-10.5 -26v-342q0 -33 -23.5 -56.5t-56.5 -23.5h-764q-32 0 -55.5 23.5t-23.5 56.5v719q0 33 23.5 56.5t55.5 23.5h250q14 0 25 10.5t11 25.5t-11 25.5t-25 10.5h-250q-62 0 -107 -44.5t-45 -107.5v-719q0 -63 45 -107.5t107 -44.5h764
q63 0 108 44.5t45 107.5v342q0 15 -11 26t-26 11zM399 165q-3 -14 5.5 -26.5t23.5 -15.5h6q13 0 23 8t13 21q1 6 3.5 18.5t13 46.5t23.5 68.5t37 82t52 90.5q87 132 209 208q116 72 261 89l-118 -122q-11 -11 -10.5 -26t10.5 -25q11 -10 26 -10t26 11l182 188l1 1l1 1v0l1 1
v1q1 0 1 1h1v1v0v1h1v1q0 1 1 1v1v1l1 1v1q0 1 0.5 1t0.5 1v2v0l1 1v1v1v1v1v0v1v1v1v2v0v2v0v1v1v1v1h-1v2v1l-1 1v1v0q0 1 -1 1v1v1q-1 1 -1 2l-1 1v1h-1v1l-1 1v0l-1 1v0q0 1 -1 1v1q-1 0 -1 1q-1 0 -1 1h-1q0 1 -1 1q0 1 -1 1l-1 1h-1v1h-1l-1 1h-1l-1 1h-1v1h-2h-1
l-1 1l-266 88q-14 5 -27.5 -2t-18 -21t2 -27.5t20.5 -18.5l107 -35q-118 -26 -218 -88q-135 -83 -232 -229q-30 -46 -55.5 -97.5t-40 -88.5t-25.5 -74t-14 -50.5t-4 -22.5v0zM399 165z" />
    <glyph glyph-name="uniE604" unicode="&#xe604;" 
d="M821 383q0 62 -31 114.5t-82 82.5q-9 5 -16 5q-11 0 -19 -8t-8 -19q0 -16 13 -24q41 -23 64.5 -63t23.5 -88q0 -49 -24.5 -89.5t-65.5 -62.5q-13 -8 -13 -24q0 -11 8 -19t19 -8l14 4q53 30 85 83t32 116zM790 719q-10 5 -17 5q-11 0 -19 -8t-8 -19q0 -16 16 -24
q76 -45 121 -122t45 -168t-45 -168t-121 -122q-16 -8 -16 -24q0 -12 8 -20t19 -8q7 0 16 6q88 51 140.5 140.5t52.5 195.5t-52 195t-140 141zM141 572h135q17 0 51 18t115 77q30 22 61 46v-356q0 -11 8 -19t19.5 -8t19.5 8t8 19v23v58q0 36 -0.5 79t-0.5 86v79v57v22
q0 20 -19 29t-35 -3l-2 -1l-5 -5t-7.5 -6.5t-10.5 -8t-12.5 -9.5t-14.5 -11l-16 -12q-8 -6 -17 -12.5t-17 -13.5q-100 -73 -126 -81h-116h-2h-60q-11 0 -19 -8t-8 -20v-433q0 -11 8 -19t19 -8h200q25 -9 113 -81q23 -19 92 -78q9 -8 22 -8q7 0 13 3q20 9 20 30v152v1v1
q-1 11 -9 18t-18 7q-12 0 -20 -8t-8 -19v-5v-15v-19q0 -11 0.5 -21.5t0.5 -19.5v-14v-5q-24 20 -48 39q-74 60 -106 78.5t-50 18.5h-1v0h-1h-149q-15 0 -19.5 5t-4.5 19v333q0 11 3.5 16t13.5 5z" />
    <glyph glyph-name="uniE605" unicode="&#xe605;" 
d="M512 817q-118 0 -217.5 -58t-157.5 -157.5t-58 -217.5t58 -217.5t157.5 -157.5t217.5 -58t217.5 58t157.5 157.5t58 217.5t-58 217.5t-157.5 157.5t-217.5 58zM685 216q0 -11 -8 -19t-19 -8h-271q-10 0 -18.5 8t-8.5 19v217q0 11 8.5 19t18.5 8h28v54q0 45 31.5 76.5
t76.5 31.5t76.5 -31.5t31.5 -76.5v-54h27q11 0 19 -8t8 -19v-217zM523 366q-17 0 -29.5 -12.5t-12.5 -29t12.5 -29.5t29.5 -13t29.5 13t12.5 29.5t-12.5 29t-29.5 12.5zM523 568q-23 0 -38.5 -15.5t-15.5 -38.5v-54h108v54q0 23 -15.5 38.5t-38.5 15.5z" />
    <glyph glyph-name="uniE606" unicode="&#xe606;" 
d="M511.5 747q-90.5 0 -173.5 -35.5t-143 -95t-95 -142.5t-35 -174t35 -173.5t95 -142.5t143 -95.5t173.5 -35.5t173.5 35.5t143 95.5t95 142.5t35.5 173.5t-35 174t-95.5 142.5t-143 95t-173.5 35.5zM452 100h-1v0l-38 38l-179 180l38 37l179 -179l318 318l38 -38z
M512 -147q-91 0 -175 35q-80 34 -142 96t-96 142q-35 83 -35 174t35 174q34 81 96 142.5t142 95.5q84 36 175 36t174 -36q80 -34 142 -95.5t96 -142.5q35 -83 35 -174t-35 -174q-34 -80 -96 -142t-142 -96q-83 -35 -174 -35zM511.5 747q-90.5 0 -173 -35.5t-142.5 -95.5
t-95.5 -142.5t-35.5 -173.5t35.5 -173.5t95.5 -142.5t142.5 -95t173 -35t173.5 35t142.5 95t95 142.5t35.5 173.5t-35.5 173.5t-95 142.5t-142.5 95.5t-173.5 35.5zM451 99l-38 39l-180 180l39 38l179 -180l318 318l39 -38zM414 138l37 -37l355 355l-37 37l-318 -318
l-179 180l-38 -37z" />
    <glyph glyph-name="uniE607" unicode="&#xe607;" 
d="M193 212q-11 0 -18.5 7.5t-7.5 18.5v309q0 10 7.5 17.5t18.5 7.5h292q11 0 19 -7.5t8 -17.5v-309q0 -11 -8 -18.5t-19 -7.5h-292zM465 291l-5 5q-4 5 -8 8t-10.5 7t-16.5 7t-22 5t-18 8t-6.5 13.5t1 15l2.5 12.5l2 4q-1 0 -1 2t1 5v2q11 6 17 18.5t7 21.5l1 9v25
q-1 2 -1 5.5t-3 12t-7 15t-12 12t-19 5.5l-34 12q-19 0 -29.5 -15.5t-11.5 -30.5l-1 -16v-21q0 -12 5.5 -25.5t11.5 -21.5l6 -8v-9l1 -4q1 -5 0.5 -12t-2.5 -14t-9 -13t-19 -8q-15 -2 -25.5 -7t-15 -9t-8.5 -10t-6 -7q-6 -8 -9 -18.5t-2 -17.5v-7h258v2t-0.5 5.5t-1.5 7.5
t-2 8.5t-2 8.5t-2.5 7t-3.5 5zM926 354v294q0 18 -13 31t-32 13h-756q-19 0 -32 -13t-13 -31v-494q0 -18 13 -31t32 -13h528q10 -19 23 -34h-563q-28 0 -47.5 19.5t-19.5 47.5v517q0 27 19.5 46.5t47.5 19.5h781q27 0 47 -19.5t20 -46.5v-335q-16 16 -35 29zM581 316v34h69
v-34h-69zM581 555h259v-34h-259v34zM840 418h-259v34h259v-34zM822.5 350q64.5 0 110 -45.5t45.5 -109t-45.5 -109t-110 -45.5t-110 45.5t-45.5 109.5t45.5 109t110 45zM792 99q6 -6 15 -6t15 6l115 113q6 6 6 14.5t-6 14.5t-15 6t-15 -6l-100 -99l-52 51q-6 6 -15 6t-15 -6
t-6 -14.5t6 -14.5z" />
    <glyph glyph-name="uniE608" unicode="&#xe608;" 
d="M511.5 746q-90.5 0 -173.5 -35.5t-142.5 -95t-95 -142.5t-35.5 -174t35.5 -173.5t95 -142.5t142.5 -95t173.5 -35t173.5 35t142.5 95t95 142.5t35.5 173.5t-35.5 174t-95 142.5t-142.5 95t-173.5 35.5zM700 146l-34 -34l-154 154l-154 -154l-34 34l154 154l-154 154
l34 34l154 -154l154 154l34 -34l-154 -154zM512 -148q-91 0 -174 35q-81 34 -142.5 96t-95.5 142q-35 83 -35 174t35 174q34 81 95.5 142.5t142.5 95.5q83 35 174 35t174 -35q80 -34 142 -95.5t96 -142.5q35 -83 35 -174t-35 -174q-34 -80 -96 -142t-142 -96
q-83 -35 -174 -35zM511.5 745q-90.5 0 -173 -35t-142.5 -95t-95 -142.5t-35 -173t35 -173t95 -142.5t142.5 -95.5t173 -35.5t173 35.5t142.5 95.5t95.5 142.5t35.5 173t-35.5 173t-95.5 142.5t-142.5 95t-173 35zM666 111l-154 154l-154 -154l-35 35l154 154l-154 154l35 35
l154 -154l154 154l35 -35l-154 -154l154 -154zM325 146l33 -33l154 154l154 -154l33 33l-154 154l154 154l-33 33l-154 -154l-154 154l-33 -33l154 -154z" />
    <glyph glyph-name="uniE609" unicode="&#xe609;" 
d="M632 153q0 -8 -8 -8h-295q-8 0 -8 8v463q0 8 8 8h295q8 0 8 -8v-54l36 42v25q0 16 -11.5 27t-26.5 11h-307q-15 0 -26.5 -11t-11.5 -27v-489q0 -16 11.5 -27t26.5 -11h307q15 0 26.5 11t11.5 27v250l-36 -42v-195zM688 569q-7 5 -13 -1l-254 -302l62 -51l253 301
q6 7 -1 13zM413 256l4 -58l57 6zM512 834q-91 0 -174.5 -35.5t-143.5 -96t-95.5 -143.5t-35.5 -174.5t35.5 -174.5t95.5 -143.5t143.5 -96t174.5 -35.5t174.5 35.5t143.5 96t95.5 143.5t35.5 174.5t-35.5 174.5t-95.5 143.5t-143.5 96t-174.5 35.5zM511.5 -27
q-111.5 0 -206.5 55t-150 150t-55 206.5t55 206.5t150 150t206.5 55t206.5 -55t150 -150t55 -206.5t-55 -206.5t-150 -150t-206.5 -55z" />
    <glyph glyph-name="uniE60A" unicode="&#xe60a;" 
d="M679 309v46q0 6 -5 11t-11 5t-10 -4l-86 -86q-4 -4 -4 -9q0 -8 6 -11l83 -85q2 -5 11 -5q6 0 11 5t5 11v59q19 0 34.5 -11t20.5 -27q15 22 15 36q-1 27 -21.5 46t-48.5 19zM512 832q-91 0 -174 -35.5t-143 -95.5t-95.5 -143t-35.5 -174t35.5 -174t95.5 -143t143 -95.5
t174 -35.5t174 35.5t143 95.5t95.5 143t35.5 174t-35.5 174t-95.5 143t-143 95.5t-174 35.5zM227 593q0 20 14.5 34t35.5 14h437q19 0 33.5 -14t14.5 -34h-2v-53h-533v53zM277 221q-19 0 -33.5 14t-14.5 33v200h533v-78q-48 38 -107 38q-66 0 -113.5 -47t-46.5 -113
q0 -27 8 -49h-226v2zM786 213q-6 -18 -30 -46q-31 -23 -46 -29q-30 -9 -55 -9q-32 0 -55 9q-18 5 -46 29q-21 22 -31 46q-11 28 -11 55.5t11 54.5q10 25 31 46q32 24 46 30q28 11 55.5 11t54.5 -11q7 -2 13.5 -6t10.5 -7t11.5 -8.5t10.5 -8.5q24 -31 30 -46q11 -27 11 -55
q0 -30 -11 -55z" />
    <glyph glyph-name="uniE60B" unicode="&#xe60b;" 
d="M396 459v-27h36v-11h-36v-26h36v-29h30v29h37v26h-37v11h37v27h-26l35 66h-34l-23 -45q-5 -11 -5 -14q-1 3 -6 14l-22 45h-34l34 -66h-22zM619 176q-5 5 -7 12h39l3 15h-41v6v8h43l3 15h-47q0 2 7 9q8 10 22 10t21 -7l5 24q-10 5 -24 5q-27 0 -43 -17q-12 -13 -14 -24
h-10l-3 -15h11v-10v-4h-8l-3 -15h13q3 -15 14 -27q16 -17 41 -17q18 0 29 6v26q-9 -11 -29 -11q-14 0 -22 11zM412 114v30q6 -3 8 -12l19 2q-2 11 -9 18q-8 7 -18 8v11h-13v-11q-12 -1 -20 -9.5t-8 -20.5t7 -21t21 -12v-32q-3 1 -7 6q-3 5 -4 11l-20 -2q3 -15 11 -23t20 -10
v-18h13v18q13 2 21 12q9 9 9 23q0 12 -7 20t-23 12zM399 118q-4 2 -7 6q-2 3 -2 7t3 8t6 5v-26zM420 69q-4 -4 -8 -5v29q5 -1 8 -5t3 -9q0 -6 -3 -10zM796 749h-599q-13 0 -22 -9t-9 -22v-203h45q16 0 27.5 -11.5t11.5 -27.5t-11.5 -27.5t-27.5 -11.5h-45v-98h45
q16 0 27.5 -11t11.5 -27t-11.5 -27.5t-27.5 -11.5h-45v-98h45q16 0 27.5 -11.5t11.5 -27.5t-11.5 -27t-27.5 -11h-45v-205q0 -13 9 -22t22 -9h599q13 0 22 9t9 22v836q0 13 -9 22t-22 9zM352 548q40 40 96.5 40t96.5 -40t40 -96.5t-40 -96.5t-96.5 -40t-96.5 40t-40 96.5
t40 96.5zM470 35q-27 -27 -66 -27t-66.5 27t-27 66t27.5 66t66 27t66 -27t27 -66t-27 -66zM706 135q-31 -31 -75 -31t-74.5 31t-30.5 74.5t31 74.5t74.5 31t74.5 -31t31 -74.5t-31 -74.5z" />
    <glyph glyph-name="uniE60C" unicode="&#xe60c;" 
d="M652 393h-211q-8 0 -14.5 -5.5t-6.5 -13.5t6.5 -13.5t14.5 -5.5h211q9 0 15 5.5t6 13.5t-6 13.5t-15 5.5zM385 571h-14q-9 0 -15 -5.5t-6 -13.5t6 -13.5t15 -5.5h14q9 0 15 5.5t6 13.5t-6 13.5t-15 5.5zM385 482h-14q-9 0 -15 -5.5t-6 -13.5t6 -13.5t15 -5.5h14
q9 0 15 5.5t6 13.5t-6 13.5t-15 5.5zM385 393h-14q-9 0 -15 -5.5t-6 -13.5t6 -13.5t15 -5.5h14q9 0 15 5.5t6 13.5t-6 13.5t-15 5.5zM652 482h-211q-8 0 -14.5 -5.5t-6.5 -13.5t6.5 -13.5t14.5 -5.5h211q9 0 15 5.5t6 13.5t-6 13.5t-15 5.5zM511.5 831q-90.5 0 -173.5 -35.5
t-142.5 -95.5t-95 -142.5t-35.5 -173.5t35.5 -173.5t95 -142.5t142.5 -95.5t173.5 -35.5t173.5 35.5t143 95.5t95 142.5t35 173.5t-35 173.5t-95 142.5t-143 95.5t-173.5 35.5zM717 44l-205 122l-206 -122v614q1 3 4 6.5t15 13.5t28.5 18t48.5 16.5t72 11.5h75q40 -3 72 -11
t49 -17t28.5 -17.5t14.5 -14.5l4 -6v-614zM652 571h-211q-8 0 -14.5 -5.5t-6.5 -13.5t6.5 -13.5t14.5 -5.5h211q9 0 15 5.5t6 13.5t-6 13.5t-15 5.5z" />
    <glyph glyph-name="uniE60D" unicode="&#xe60d;" 
d="M512 831q-91 0 -173.5 -35.5t-142.5 -95.5t-95.5 -142.5t-35.5 -173.5t35.5 -173.5t95.5 -142.5t142.5 -95.5t173.5 -35.5t173.5 35.5t142.5 95.5t95.5 142.5t35.5 173.5t-35.5 173.5t-95.5 142.5t-142.5 95.5t-173.5 35.5zM590 594q14 14 27 0l45 -45q14 -14 0 -27
l-33 -37l-74 74zM317 249v74l214 216l75 -74l-215 -216h-74zM707 249h-253l39 39h214v-39z" />
    <glyph glyph-name="uniE60E" unicode="&#xe60e;" 
d="M868 46h-712q-39 0 -66.5 29.5t-27.5 70.5v476q0 41 27.5 70t66.5 29h712q39 0 66.5 -29t27.5 -70v-476q0 -41 -27.5 -70.5t-66.5 -29.5v0zM925 594q0 36 -24.5 62t-58.5 26h-660q-34 0 -58 -26t-24 -62v-31h825v31zM100 444v-270q0 -36 24 -62t58 -26h660q34 0 58.5 26
t24.5 62v270h-825zM643 146l56 119h188l-56 -119h-188z" />
    <glyph glyph-name="uniE60F" unicode="&#xe60f;" 
d="M908 -38h-792q-10 0 -18 8t-8 18v53q0 6 3 11q8 100 60 184t135 136q44 -44 101.5 -68.5t122.5 -24.5t122.5 24.5t101.5 68.5q83 -52 135 -136t60 -184q3 -5 3 -11v-53q0 -10 -8 -18t-18 -8zM512 384q-87 0 -149 62t-62 149t62 149t149 62t149 -62t62 -149t-62 -149
t-149 -62z" />
    <glyph glyph-name="uniE610" unicode="&#xe610;" 
d="M511.5 743q-90.5 0 -173 -35t-142 -94.5t-95 -142t-35.5 -173.5t35.5 -173.5t95 -142t142 -95t173 -35.5t173 35.5t142 95t95 142t35.5 173.5t-35.5 173.5t-95 142t-142 94.5t-173 35zM708 386v-69q0 -26 -24 -39v-135h-35l-13 86l-13 -86h-33v122q21 21 21 50v76
q0 21 -11 38q5 1 10 1h54q18 0 31 -13t13 -31zM636 531q19 0 32.5 -13.5t13.5 -32.5t-13.5 -32.5t-32.5 -13.5t-32.5 13.5t-13.5 32.5t13.5 32.5t32.5 13.5zM512 548q21 0 36 -14.5t15 -35.5t-15 -35.5t-36 -14.5t-35.5 14.5t-14.5 35.5t14.5 35.5t35.5 14.5zM434 391
q0 19 14 33t33 14h59q20 0 34 -14t14 -33v-76q0 -29 -26 -42v-147h-35l-15 93l-14 -93h-38v147q-26 13 -26 42v76zM386.5 531q19.5 0 33 -13.5t13.5 -32.5t-13.5 -32.5t-33 -13.5t-33 13.5t-13.5 32.5t13.5 32.5t33 13.5zM314 386q0 18 13 31t31 13h54q5 0 10 -1
q-11 -17 -11 -38v-76q0 -29 21 -50v-122h-32l-13 86l-13 -86h-36v135q-24 13 -24 39v69zM511.5 48q-105.5 0 -180 23t-74.5 55q0 27 54 48q-13 -8 -13 -18q0 -22 62.5 -37.5t151 -15.5t151 15.5t62.5 37.5q0 10 -13 18q54 -21 54 -48q0 -32 -74.5 -55t-180 -23z" />
    <glyph glyph-name="uniE611" unicode="&#xe611;" 
d="M865 -66h-706v843h201v-46h-156v-751h616v751h-156v46h201v-843zM686 657h-348v177h348v-177zM384 703h256v85h-256v-85zM313 509h401v-45h-401v45zM313 370h401v-46h-401v46zM313 230h401v-45h-401v45z" />
    <glyph glyph-name="uniE612" unicode="&#xe612;" horiz-adv-x="1055" 
d="M47 341l486 486l486 -486h-48l-438 437l-438 -437h-48zM702 736h235v-235l-26 27l-2 181h-179zM197 341v-397h229v284h227v-284h226v397h-28v-368h-169v287h-285v-287h-169l1 368h-32z" />
    <glyph glyph-name="uniE613" unicode="&#xe613;" 
d="M990 340l-478 478l-478 -478h147v-390h225v280h223v-280h223v390h138zM909 730h-231v-1l231 -231v232z" />
    <glyph glyph-name="uniE614" unicode="&#xe614;" 
d="M59 307h105v-273h51v273h105v45h-261v-45zM59 307zM498 358q-77 0 -115 -48q-38 -42 -38 -117t38 -118q43 -47 114.5 -47t114.5 47q41 47 41 118q0 76 -41 117q-38 48 -114 48zM574 104q-27 -32 -76 -32t-77 32q-25 35 -25 86q0 55 25 85q28 32 77 32t76 -32
q25 -29 25 -89q0 -53 -25 -82v0zM574 104zM835 352h-131v-318h51v121h80q117 0 117 98q-4 99 -117 99zM879 212q-12 -13 -51 -13h-76v108h76q39 0 51 -12q16 -16 16 -42q0 -29 -16 -41zM879 212zM520 775l-270 -270h527zM520 775z" />
    <glyph glyph-name="uniE615" unicode="&#xe615;" 
d="M930 677q-59 2 -163 40.5t-181.5 76t-73.5 37.5h-5q-11 -6 -30.5 -16t-74.5 -36t-104 -46t-106.5 -37.5t-94.5 -18.5q-2 -21 -2.5 -64.5t6.5 -110t17.5 -132t31.5 -130t48 -103.5q28 -42 96 -87.5t120 -70t92 -39.5q1 0 1.5 -0.5t3.5 -1t6 1.5q234 88 312 197
q29 44 51 110.5t32.5 131.5t16 128t5 107t-3.5 63zM680 413h-135v-63h135v-52h-135v-120h-64v120h-133v52h133v63h-133v53h108l-70 126h70q55 -102 57 -111q3 10 59 111h70l-72 -126h110v-53z" />
    <glyph glyph-name="uniE616" unicode="&#xe616;" 
d="M386 350v18q0 5 3.5 8t7.5 3h97v69h-97q-4 0 -7.5 3t-3.5 7v18q0 5 3.5 8t7.5 3h66l-49 49q-8 8 0 15l13 13q7 8 15 0l71 -71l72 71q7 8 15 0l12 -13q8 -7 0 -15l-49 -49h68q4 0 7.5 -3t3.5 -8v-18q0 -4 -3.5 -7t-7.5 -3h-97v-69h97q4 0 7.5 -3t3.5 -8v-18q0 -4 -3.5 -7
t-7.5 -3h-97v-98q0 -4 -3.5 -7t-7.5 -3h-18q-4 0 -7.5 3t-3.5 7v98h-97q-4 0 -7.5 3t-3.5 7zM797 769v-773q0 -16 -11.5 -28t-28.5 -12h-486q-16 0 -28 12t-12 28v773q0 17 12 28.5t28 11.5h486q17 0 28.5 -11.5t11.5 -28.5zM572 45q0 4 -3 7t-7 3h-96q-4 0 -7 -3t-3 -7v-22
q0 -4 3 -7t7 -3h96q4 0 7 3t3 7v22zM720 726h-412v-642h412v642z" />
    <glyph glyph-name="uniE617" unicode="&#xe617;" 
d="M511 833q-90 0 -171 -34t-143 -94h22q123 -225 149 -285h2q9 25 49 100l101 185h89l-177 -302h139v-66h-162v-92h162v-67h-162v-134h-84v134h-169v67h169v92h-169v66h144l-146 252q-91 -119 -91 -270q0 -91 35.5 -173.5t95.5 -142.5t143 -95.5t174 -35.5t173.5 35.5
t142.5 95.5t95.5 142.5t35.5 173.5t-35.5 174t-95.5 143t-142.5 95.5t-173.5 35.5zM834 182h-31q-17 0 -24 8q-7 6 -7 24v73q-24 -1 -42 -2q-2 -38 -16 -60q-19 -31 -68 -48q-5 8 -12 18q47 15 64 41q12 19 13 49q-16 -1 -27 -2q-7 0 -19 -4l-10 21q13 3 22 11q24 22 44 49
h-83v17h113q-8 15 -16 25l17 10q9 -12 19 -28l-13 -7h110v-17h-121q-22 -27 -54 -58q75 2 118 3q-13 16 -27 32l14 10q37 -37 59 -65l-17 -12q-7 9 -15 19q-17 -1 -33 -1v-71q0 -11 2 -14q3 -4 13 -4h23q15 0 17 12q2 10 3 31q8 -3 21 -7q-2 -17 -4 -30q-4 -23 -33 -23z" />
    <glyph glyph-name="uniE618" unicode="&#xe618;" 
d="M958 42h-848v-51h848v51zM408 433l-215 -156v-172h215v328zM435 539l-28 38l-227 -167l28 -38zM573 409l26 39l-194 129l-26 -39zM830 659l-33 34l-258 -250l32 -34zM651 385l-68 -70l-120 85v-295h188v280zM895 602l-188 -185v-312h189zM749 743l130 -136l21 149z
M738 898zM64 773h46v-782h-46v782z" />
    <glyph glyph-name="uniE619" unicode="&#xe619;" 
d="M897 71q0 -18 -5.5 -33.5t-16 -27t-24.5 -18t-30 -7.5h-631q-16 0 -31 7t-26 18.5t-17.5 27t-6.5 33.5v467q0 35 23 60t56 25h630q33 0 56 -25t23 -60v-128h-197q-33 0 -56 -24t-23 -60q1 -24 10 -43q7 -16 23 -29t46 -13h197v-170zM770 666h-426q51 26 96 50
q37 20 78 42q36 19 60 31q32 18 58 16.5t44 -8.5q20 -10 35 -27zM642 326q0 18 12.5 30t30 12t30 -12t12.5 -30t-12.5 -30.5t-30 -12.5t-30 12.5t-12.5 30.5z" />
    <glyph glyph-name="uniE61A" unicode="&#xe61a;" 
d="M955 385.5q0 -90.5 -35 -172.5t-94.5 -141.5t-141.5 -94.5t-172.5 -35t-173 35t-141.5 94.5t-94.5 141.5t-35.5 172.5t35.5 172.5t94.5 141.5t141.5 94.5t173 35t172.5 -35t141.5 -94.5t94.5 -141.5t35 -172.5zM675 423q-36 37 -93 92q-6 5 -13 5q-63 1 -119 0
q-8 0 -14 -6q-25 -25 -79 -80q-64 -65 -62 -144q2 -110 104 -162q75 -38 171 -19q74 16 115 64t43 125q-3 74 -53 125zM561 555q9 0 16 9q29 31 50 59q1 1 7 21q-2 0 -7.5 2t-7.5 2h-7q-27 -7 -44 7q-23 20 -44 0q-14 -14 -31 1q-21 17 -40 1q-22 -19 -47 -9q-18 7 -22 -5
q-2 -9 8 -22q22 -29 47 -55q9 -10 20 -11q5 -1 49 -1q47 0 53 1zM567 394l-42 -73h33v-16h-39v-22h39v-16h-39v-33h-20v33h-41v16h41v22h-41v16h35l-42 73h22q30 -54 36 -69h1q2 6 12 24l24 45h21z" />
    <glyph glyph-name="uniE61B" unicode="&#xe61b;" 
d="M512 831q-91 0 -173.5 -35.5t-142.5 -95.5t-95.5 -142.5t-35.5 -173.5t35.5 -173.5t95.5 -142.5t142.5 -95.5t173.5 -35.5t173.5 35.5t142.5 95.5t95.5 142.5t35.5 173.5t-35.5 173.5t-95.5 142.5t-142.5 95.5t-173.5 35.5zM488 443q-9 1 -14 6.5t-6 14.5q1 8 6 13t14 6
h47l-44 77q-3 4 -6 10t-3 14q2 9 7 14.5t18 7.5q8 -1 14 -5.5t10 -10.5l50 -91l55 92q4 5 10 9.5t14 5.5q5 0 9 -1t7 -3.5t5.5 -6.5t3.5 -11q0 -10 -7 -18l-51 -83h48q9 -1 14 -6q4 -5 5 -12v-2q-1 -8 -5 -14q-5 -6 -14 -6l-62 -1v-20h62q9 0 14 -6q4 -6 5 -13v-2
q-1 -8 -5 -13q-5 -6 -14 -7l-62 1v-35q-2 -28 -31 -28q-14 0 -22 7t-9 21v34h-63q-9 1 -14 7.5t-6 14.5q1 8 6 13.5t14 5.5h63v21h-63zM348 184q0 -9 -6 -15.5t-15 -6.5h-32q-9 0 -15.5 6.5t-6.5 15.5v151q0 8 6.5 14.5t15.5 6.5h32q9 0 15 -6.5t6 -14.5v-151zM734 258
l-166 -90l-167 31h-44v123l66 14l148 -61q21 -9 20 -32v0v-2q0 -1 -0.5 -1.5t-0.5 -1.5v-2v-1l-1 -2q-9 -20 -30 -20q-7 0 -13 2l-55 23v-7l52 -22q8 -3 16 -3q26 0 36 24q5 13 1 26l107 58q12 6 25 2.5t19 -15.5t2.5 -24.5t-15.5 -18.5z" />
    <glyph glyph-name="uniE61C" unicode="&#xe61c;" 
d="M412 429q-2 2 -3 2q-2 1 -3.5 1t-3.5 -1q-2 0 -3 -2l-67 -81q-6 -7 0.5 -15t12.5 0l51 62v-174q0 -11 9 -11t9 11v174l52 -63q3 -3 6.5 -3t6.5 3q6 8 0 16zM618 295l-51 -59v167q0 10 -9 10t-9 -10v-167l-52 60q-6 8 -12.5 0.5t-0.5 -15.5l67 -78q2 -1 3 -2h1
q1 -1 2.5 -1t3.5 1t3 2l67 78q6 7 -0.5 14.5t-12.5 -0.5zM518 829q-90 0 -171.5 -34.5t-140.5 -93.5t-93.5 -140.5t-34.5 -171.5t34.5 -171.5t93.5 -140.5t140.5 -94t171.5 -35t171.5 35t140.5 94t94 140.5t35 171.5t-35 171.5t-94 140.5t-140.5 93.5t-171.5 34.5zM474 66
q-89 0 -156 54q-85 68 -80 171q1 28 20 75q35 83 106 193q20 32 65 96l12 18q14 20 34 20q19 0 33 -20l7 -10q104 -149 156 -254q30 -61 37 -101q13 -71 -31 -137q-33 -50 -86.5 -77.5t-116.5 -27.5zM757 182q-47 -61 -125 -81q48 28 77 73q42 67 29 137q-8 39 -39 99
q-53 103 -157 249l-5 6q2 2 5.5 6.5t5.5 6.5l13 16q15 20 35 18q18 -1 31 -22l6 -11q91 -154 135 -261q25 -63 29 -102q8 -71 -40 -134z" />
    <glyph glyph-name="uniE61D" unicode="&#xe61d;" 
d="M308 441l53 -21q60 -23 146 -23q91 0 155 26l60 25q58 24 97.5 46.5t48.5 33.5q9 5 9 20v93q0 71 -50 121t-121 50h-388q-71 0 -121 -50t-50 -121v-92q0 -10 15 -27q8 -11 47.5 -34t98.5 -47zM538.5 689.5q36.5 37.5 93.5 37.5q41 0 69 -13v-35q-30 19 -72 19
q-40 0 -66.5 -28t-26.5 -73q0 -47 24.5 -73t65.5 -26q28 0 48 11v67h-54v29h86v-114q-37 -22 -84 -22q-54 0 -87 34.5t-33 91.5t36.5 94.5zM322 702l89 26v-227h55v-27h-143v27h56v189l-57 -17v29zM922 520l-19 -18q-3 -4 -26 -21q-46 -35 -138 -72l-61 -26
q-71 -29 -171 -29q-94 0 -162 27l-53 21q-99 38 -145 76q-17 14 -23 25l-16 23q-12 -18 -20 -75.5t-8 -124.5v-199q0 -71 50 -121t121 -50h522q71 0 121 50t50 121v199q0 62 -6.5 117t-15.5 77z" />
    <glyph glyph-name="uniE61E" unicode="&#xe61e;" 
d="M513.5 837q93.5 0 179 -36.5t147 -98t98 -146.5t36.5 -178.5t-36.5 -179t-98 -147t-147 -98t-179 -36.5t-178.5 36.5t-146.5 98t-98 147t-36.5 179t36.5 178.5t98 146.5t146.5 98t178.5 36.5zM420 348q-1 -1 -1 -2l-26 -93q-2 -9 4 -16q5 -4 12 -4h4l93 25q2 0 3 2
l249 248q12 12 12 29q0 20 -15 34l-23 24q-15 14 -34 14q-17 0 -29 -11l-249 -249v-1zM734 533l-25 -25l-40 41l24 24q8 8 16 -1l24 -23q4 -4 4 -9q-1 -4 -3 -7zM464 344l180 180l40 -41l-180 -180zM431 271l13 48l35 -35zM750 434q-7 0 -12.5 -5t-5.5 -12v-232
q0 -9 -6.5 -15.5t-15.5 -6.5h-392q-9 0 -15.5 6.5t-6.5 15.5v379q0 9 6.5 15.5t15.5 6.5h253q7 0 12 5t5 12t-5 12t-12 5h-256q-22 0 -38 -15.5t-16 -38.5v-384q0 -22 16 -38t38 -16h398q22 0 38 16t16 38v235q0 7 -5 12t-12 5z" />
    <glyph glyph-name="uniE61F" unicode="&#xe61f;" horiz-adv-x="1025" 
d="M764 269l-85 66q-4 3 -11.5 3.5t-12.5 -2.5l-61 -37h-3q-33 1 -92 57q-54 57 -57 92v3l37 61q7 13 -2 25l-66 85q-9 11 -22 11q-11 0 -20 -9l-45 -44q-11 -11 -15 -29.5t2 -32.5v-1q1 -4 4 -11.5t13.5 -29t25 -44.5t40.5 -56.5t59 -65.5q33 -33 67 -60t56.5 -41.5
t43.5 -24.5t28 -12l11 -4h1q8 -3 18 -3q28 0 44 16l45 45q10 10 9 22t-12 21zM512 834q-92 0 -175 -35.5t-143.5 -96t-96 -143.5t-35.5 -175t35.5 -175t96 -143.5t143.5 -96t175 -35.5t175 35.5t143.5 96t96 143.5t35.5 175t-35.5 175t-96 143.5t-143.5 96t-175 35.5z
M783 210l-45 -45q-23 -23 -60 -23q-14 0 -25 5q-6 1 -15 4.5t-31 14t-45.5 25.5t-57.5 42.5t-67 60.5q-52 52 -88.5 106t-45.5 75t-13 35q-8 20 -3 45t21 40l45 45q15 16 36 16q24 0 40 -21l66 -84q8 -10 8.5 -24.5t-5.5 -25.5l-33 -54q9 -32 50 -75q45 -43 74 -50l54 33
q11 7 25.5 6t24.5 -9l85 -65q19 -15 20.5 -37.5t-15.5 -39.5z" />
    <glyph glyph-name="uniE620" unicode="&#xe620;" 
d="M960 423q0 12 -8.5 21t-21.5 9h-46q-14 0 -27 9.5t-17 23.5l-24 58q-7 12 -4.5 28t12.5 26l33 33q8 9 8 21.5t-8 20.5l-56 55q-8 9 -20.5 9t-21.5 -9l-33 -32q-10 -10 -26 -12.5t-28 4.5l-58 24q-14 4 -23.5 17t-9.5 27v46q0 13 -9 21.5t-21 8.5h-78q-12 0 -21 -8.5
t-9 -21.5v-46q0 -14 -9.5 -27t-23.5 -17l-58 -24q-12 -7 -28 -4.5t-26 12.5l-33 32q-9 9 -21.5 9t-20.5 -9l-55 -55q-9 -8 -9 -20.5t9 -21.5l32 -33q10 -10 12.5 -26t-4.5 -28l-24 -58q-4 -14 -17 -23.5t-27 -9.5h-46q-13 0 -21.5 -9t-8.5 -21v-78q0 -12 8.5 -21t21.5 -9h46
q14 0 27 -9.5t17 -23.5l24 -58q7 -12 4.5 -28t-12.5 -26l-33 -33q-8 -9 -8 -21.5t8 -20.5l56 -56q8 -8 20.5 -8t21.5 8l33 33q10 10 26 12.5t28 -4.5l58 -24q14 -4 23.5 -17t9.5 -27v-46q0 -13 9 -21.5t21 -8.5h78q12 0 21 8.5t9 21.5v46q0 14 9.5 27t23.5 17l58 24
q12 7 28 4.5t27 -12.5l32 -32q9 -9 21.5 -9t20.5 8l56 56q8 8 8 20.5t-8 21.5l-33 33q-10 10 -12.5 26t4.5 28l24 58q4 14 17 23.5t27 9.5h46q13 0 21.5 9t8.5 21v78zM685 384q0 -71 -50.5 -121.5t-122 -50.5t-122 50.5t-50.5 121.5t50.5 121.5t122 50.5t122 -50.5
t50.5 -121.5z" />
    <glyph glyph-name="uniE621" unicode="&#xe621;" 
d="M924 168q0 -81 -57.5 -138.5t-138.5 -57.5q-108 -10 -216 -10q-48 0 -102 2.5t-84 4.5l-30 3q-81 0 -138.5 57.5t-57.5 138.5q-10 108 -10 216q0 48 2.5 102t4.5 84l3 30q0 81 57.5 138.5t138.5 57.5q108 10 216 10q22 0 45.5 -0.5t44 -1.5t40.5 -2t35 -2t26.5 -2
t18.5 -1l6 -1q81 0 138.5 -57.5t57.5 -138.5q10 -108 10 -216t-10 -216zM698 525h-3q-10 48 -73.5 80t-148.5 32q-91 0 -156 -36t-69 -88v-281q4 -52 69 -88t156 -36q63 0 117 20q-16 10 -29 25q-42 -11 -88 -11q-80 0 -136 28t-56 68q0 9 4 18q31 -26 80.5 -42t107.5 -16
q30 0 61 5q-5 17 -5 33q-28 -4 -56 -4q-80 0 -136 28t-56 68q0 9 4 18q31 -26 80.5 -42t107.5 -16q34 0 69 7q13 25 34 42q-48 -15 -103 -15q-80 0 -136 28t-56 68q0 9 4 18q31 -26 80.5 -42t107 -16t107 16t80.5 42q4 -9 4 -18q0 -30 -33 -54q14 3 27 3q15 0 31 -4
q-1 1 -1 3l-1 1h11v158zM669 345q-48 0 -83 -35t-35 -83.5t35 -83.5t83.5 -35t83.5 35t35 83.5t-35 83.5t-84 35zM669 142q-34 0 -59 25t-25 59.5t25 59.5t59.5 25t59.5 -25t25 -59.5t-25 -59.5t-60 -25zM708 223q5 0 8.5 4t3.5 9t-3.5 8.5t-8.5 3.5h-18l19 19q8 9 -0.5 18
t-16.5 0l-23 -23l-22 23q-8 9 -16.5 0t-0.5 -18l19 -19h-18q-5 0 -8.5 -3.5t-3.5 -8.5t3.5 -9t8.5 -4h27v-16h-27q-5 0 -8.5 -3.5t-3.5 -8.5t3.5 -8.5t8.5 -3.5h27v-18q0 -5 3.5 -8.5t8 -3.5t8 3.5t3.5 8.5v18h27q5 0 8.5 3.5t3.5 8.5t-3.5 8.5t-8.5 3.5h-27v16h27zM473 412
q-80 0 -136 28t-56 67.5t56 67.5t135.5 28t135.5 -28t56 -67.5t-56 -67.5t-135 -28zM473 412z" />
    <glyph glyph-name="uniE622" unicode="&#xe622;" 
d="M937 -13q2 -7 2 -12q0 -18 -13 -30.5t-30.5 -12.5t-30 12.5t-12.5 30.5h-1q-9 135 -108 228.5t-235.5 93.5t-235 -93.5t-107.5 -228.5h-1q0 -18 -12.5 -30.5t-30.5 -12.5t-30.5 12.5t-12.5 30.5q0 5 2 12q9 121 79.5 218t180.5 144q-52 37 -81.5 94t-29.5 123
q0 111 78.5 189.5t189.5 78.5t190 -78.5t79 -189.5q0 -63 -28 -118.5t-76 -93.5q114 -44 189 -143t85 -224zM681 566q0 76 -53.5 129t-129.5 53t-129.5 -53.5t-53.5 -129t53.5 -129t129.5 -53.5t129.5 53.5t53.5 129.5z" />
    <glyph glyph-name="uniE623" unicode="&#xe623;" 
d="M526 835q90 0 172.5 -35t142 -94.5t94.5 -141.5t35 -172.5t-35 -173t-94.5 -142t-142 -94.5t-172.5 -35t-172.5 35t-142 94.5t-94.5 142t-35 173t35 172.5t94.5 141.5t142 94.5t172.5 35zM543 260q0 37 5 54q4 16 14 30q9 12 40 39q45 41 60.5 69t15.5 61
q0 58 -44.5 98.5t-118.5 40.5q-71 0 -113.5 -38t-51.5 -109l64 -7q8 53 35 78t67 25q41 0 70 -28q28 -28 28 -64q0 -20 -9.5 -37t-42 -45.5t-45.5 -43.5q-17 -21 -24 -41q-11 -27 -11 -63q0 -9 1 -19h60zM550 135v71h-71v-71h71z" />
    <glyph glyph-name="uniE624" unicode="&#xe624;" 
d="M512 114q-66 0 -135 28t-120.5 67t-93.5 80t-64 67t-22 28q4 6 11.5 15.5t33 37.5t52.5 53.5t68 56.5t81 53.5t90.5 38t98.5 15.5q66 0 135 -28t120.5 -67.5t93.5 -80t64 -67t22 -27.5q-4 -6 -11.5 -15.5t-33 -37.5t-52.5 -53.5t-68 -56.5t-81 -53.5t-90.5 -38
t-98.5 -15.5zM110 384q16 -20 36 -42.5t62.5 -61t86 -67t102.5 -50.5t115 -22t115 22t102.5 50.5t86 67t62.5 61t36 42.5q-16 20 -36 42.5t-62.5 61t-86 67t-102.5 50.5t-115 22t-115 -22t-102.5 -50.5t-86 -67t-62.5 -61t-36 -42.5zM524 179q-85 0 -145 60t-60 145t60 145
t145 60t145 -60t60 -145t-60 -145t-145 -60zM524 567q-76 0 -129.5 -53.5t-53.5 -129.5t53.5 -129.5t129.5 -53.5t129.5 53.5t53.5 129.5t-53.5 129.5t-129.5 53.5zM627.5 420q-20.5 0 -35 14.5t-14.5 35t14.5 35t35 14.5t35 -14.5t14.5 -35t-14.5 -35t-35 -14.5zM627.5 508
q-15.5 0 -27 -11t-11.5 -27t11.5 -27.5t27 -11.5t27 11.5t11.5 27.5t-11.5 27t-27 11zM524 308q-31 0 -53.5 22.5t-22.5 53.5t22.5 53.5t53.5 22.5t53.5 -22.5t22.5 -53.5t-22.5 -53.5t-53.5 -22.5zM524 449q-27 0 -46 -19t-19 -46t19 -46t46 -19t46 19t19 46t-19 46t-46 19
z" />
    <glyph glyph-name="uniE625" unicode="&#xe625;" 
d="M254 753q-100 -70 -150.5 -179t-40.5 -228.5t80 -219.5t179 -150.5t228.5 -40.5t219.5 80t150.5 179t40.5 228.5t-80 219.5t-179 150.5t-228.5 40.5t-219.5 -80zM749 45.5q-92 -64.5 -202 -73.5t-209.5 37t-164 138t-73.5 202t37 209.5t138 164t202 73.5t209.5 -37
t164 -138t73.5 -202t-37 -209.5t-138 -164zM291 701q-86 -60 -129.5 -153.5t-35 -196t68.5 -188.5t153.5 -129.5t196 -35t188.5 68.5t129.5 153.5t35 196t-68.5 188.5t-153.5 129.5t-196 35t-188.5 -68.5zM723 82.5q-82 -57.5 -179.5 -65.5t-186.5 33t-146.5 123
t-65.5 179.5t33 186.5t123 146.5t179.5 65.5t186.5 -33t146.5 -123t65.5 -179.5t-33 -186.5t-123 -146.5zM318 389q1 46 22.5 86.5t60 67.5t85 33.5t88.5 -8.5l19 13q-48 21 -103 15.5t-100.5 -37.5t-69 -80.5t-21.5 -102.5zM706 379q-1 -46 -22.5 -86.5t-60 -67.5
t-85 -33.5t-88.5 8.5l-19 -13q48 -21 103 -15.5t100.5 37.5t69 80.5t21.5 102.5zM314 667l30 -22l30 21l-12 -35l30 -23l-37 1l-12 -35l-11 36h-37l30 21zM213 557l36 -8l19 32l4 -37l36 -7l-34 -15l4 -37l-25 27l-34 -15l19 32zM452 724l18 -33l36 7l-26 -27l18 -33l-33 17
l-26 -27l5 37l-33 16l36 6zM602 717l1 -37l36 -9l-34 -14l2 -36l-24 28l-34 -13l20 31l-23 29l35 -10zM168 414l36 9l4 36l19 -31l36 8l-25 -28l19 -32l-34 15l-24 -28l3 37zM710 101l-30 22l-30 -21l12 35l-30 23l37 -1l12 35l11 -36h37l-30 -21zM811 211l-36 8l-19 -32
l-4 37l-36 7l34 15l-4 37l25 -27l34 15l-19 -32zM572 44l-18 33l-36 -7l26 27l-18 33l33 -17l26 27l-5 -37l33 -16l-36 -6zM422 51l-1 37l-36 9l34 14l-2 36l24 -28l34 13l-20 -31l23 -29l-35 10zM856 354l-36 -9l-4 -36l-19 31l-36 -8l25 28l-19 32l34 -15l24 28l-3 -37z
M408 311l-97 -68l30 -43q6 -9 15 -3l79 55q4 3 6 8q1 6 -15 32l18 6q17 -32 16 -41t-11 -16l-87 -62q-20 -13 -34 7l-58 82l16 11l15 -22l82 58l-27 37l-104 -73l-10 15l120 83zM596 340q-5 -4 -29 -20q-17 -11 -28 -16q-12 -4 -25 -1q-6 2 -9 0q-5 -4 -2 -34l-19 2
q-1 28 5 40l-31 44l-22 -15l-10 14l36 25l42 -59q2 0 4 -1q10 -2 19 -1q9 2 24 12q13 8 34 23l21 15q12 9 17 13l7 -18zM403 415q25 -1 44 -6l-3 -18q-19 5 -45 7zM555 343l-13 12q11 6 20 13q6 4 2 9l-44 64l-57 -40l-10 15l57 39l-17 24l15 11l17 -24l21 14l10 -14
l-21 -15l47 -67q10 -15 -5 -26zM491 403q26 -7 42 -15l-6 -18q-17 9 -42 17zM658 423q4 -22 1 -43h-18q4 20 1 41zM557 524l15 11l11 -17l27 19l-11 16l15 10l11 -15l8 5l10 -14l-8 -5l44 -64l9 7l10 -14l-76 -53l-10 14l11 7l-45 63l-8 -6l-10 14l9 6zM620 523l-27 -19
l9 -12l27 19zM619 467l28 19l-9 12l-27 -19zM637 441l27 19l-8 13l-27 -19zM676 445q18 -5 31 -11q-1 30 -22 61l-53 75l56 39l86 -123q11 -16 -4 -27l-17 -11l-14 12q13 8 16 10q5 4 0 11l-19 28l-27 -19q18 -33 17 -65l-18 3l-4 -13q-13 7 -34 15zM699 560l-16 25l-26 -19
l17 -24zM683 529l17 -24l26 18l-17 24z" />
    <glyph glyph-name="uniE626" unicode="&#xe626;" 
d="M512 719h-447v-670h4h53h390h390h53h4v670h-447zM883 689l-371 -346l-371 346h742zM883 79h-742l283 264l-22 21l-305 -285h-2v610h2l415 -387l415 387h2v-610h-2l-305 285l-22 -21z" />
    <glyph glyph-name="uniE627" unicode="&#xe627;" 
d="M413 -19q-115 32 -184 88q-60 49 -102 116q-48 77 -61 146l-1 4v387l20 10q35 17 81 29.5t84 18t78.5 9t56.5 4t26 0.5v-73q-18 0 -49.5 -1t-103.5 -12t-120 -31v-334q14 -60 52 -121q82 -129 231 -170zM405 139q-46 13 -83.5 39.5t-58 53t-34 54t-17.5 42t-4 16.5v230
q33 16 85.5 25t75.5 10t36 1v-471zM491 558q-68 9 -87 9v44q22 0 93 -9zM404 139l-5 42q38 11 69 33t47.5 43t28.5 45t14.5 34t3.5 15l41 -15q-6 -35 -33 -78q-55 -88 -166 -119zM540 711q-71 9 -130 9v73q82 0 174 -12zM413 -19l-12 70q48 13 88.5 35t66.5 44t46.5 49
t31 47t18 41.5t8.5 28.5t2 12l75 -8q-9 -62 -51 -129q-39 -62 -97 -107q-68 -53 -176 -83zM750 770q-88 0 -150 -62t-62 -149.5t62 -150t150 -62.5t150 62.5t62 150t-62 149.5t-150 62zM726 464l-16 16l-106 104l34 34l89 -89l137 124l32 -35z" />
    <glyph glyph-name="uniE628" unicode="&#xe628;" 
d="M511.5 272q69.5 0 118.5 49t49 119v223q0 70 -49 119t-118.5 49t-118.5 -49t-49 -119v-223q0 -70 49 -119t118.5 -49zM819 426v0q0 17 -12.5 29.5t-29.5 12.5t-29.5 -12.5t-12.5 -29.5q0 -93 -65.5 -158.5t-158 -65.5t-158 65.5t-65.5 158.5q0 17 -12 29.5t-29.5 12.5
t-30 -12.5t-12.5 -29.5v0q0 -116 76.5 -202.5t189.5 -101.5v-101h-140q-17 0 -29.5 -12.5t-12.5 -29.5t12.5 -29.5t29.5 -12.5h363q18 0 30 12.5t12 29.5t-12 29.5t-30 12.5h-139v101q113 15 189 101.5t76 202.5z" />
    <glyph glyph-name="uniE629" unicode="&#xe629;" 
d="M518 434q61 59 402 401l22 -23q15 -14 23 -21q-343 -345 -389 -390q-1 -2 -4.5 -5t-5.5 -5l-2 -2q0 -2 4 -7t12 -12l8 -8q43 -43 377 -376l-22 -22q-15 -15 -22 -23l-390 390l-5 5l-5 5l-2 2q-2 1 -7 -4.5t-11.5 -13t-7.5 -7.5q-41 -42 -118 -118.5t-140 -139.5
t-118 -119q-8 7 -22.5 22t-22.5 22q345 346 389 390q1 2 4.5 5t5.5 5l2 2q0 2 -25 27l-182 182q-120 120 -182 181l-4 5q-4 3 -6 6l-2 2l20 21q11 11 22 20q2 3 3 3q2 -1 6.5 -5t11 -11.5t7.5 -8.5l119 -119l139 -140q63 -62 118 -116z" />
    <glyph glyph-name="uniE62A" unicode="&#xe62a;" 
d="M681 665h-338q-116 0 -198.5 -82.5t-82.5 -198.5t82.5 -198.5t198.5 -82.5h338q116 0 198.5 82.5t82.5 198.5t-82.5 198.5t-198.5 82.5zM681 159h-338q-93 0 -159 66t-66 159t66 159t159 66h338q93 0 159 -66t66 -159t-66 -159t-159 -66zM343.5 553q-69.5 0 -119.5 -49.5
t-50 -119.5t50 -119.5t119.5 -49.5t119 49.5t49.5 119.5t-49.5 119.5t-119 49.5zM343.5 272q-46.5 0 -79.5 33t-33 79t33 79t79.5 33t79.5 -33t33 -79t-33 -79t-79.5 -33z" />
    <glyph glyph-name="uniE62B" unicode="&#xe62b;" 
d="M524.5 819q-90.5 0 -172.5 -35t-142 -94.5t-95 -142t-35 -173t35 -173t95 -142t142 -95t172.5 -35.5t173 35.5t142 95t95 142t35.5 173t-35.5 173t-95 142t-142 94.5t-173 35zM658 124q-53 -27 -111.5 -31t-111.5 12.5t-98 54t-73 89.5q-37 74 -30 158.5t58 151.5h-17
q-8 0 -13.5 5.5t-5.5 13.5t5.5 13.5t13.5 5.5h55q4 0 6 -2q7 -4 11 -11q0 -1 1 -3t1 -3v-55q0 -8 -5 -13.5t-11.5 -5.5t-13 5t-6.5 11v7q-59 -87 -39 -191t109 -163q57 -39 127 -43t134 28q15 8 25 -8q4 -20 -11 -26zM610 417q11 0 19 -8.5t8 -19.5t-8 -19t-19 -8h-58v-17
h58q11 0 19 -8.5t8 -19.5t-8 -19t-19 -8h-58v-43q0 -11 -8 -19t-19 -8t-19.5 8t-8.5 19v43h-57q-11 0 -19 8t-8 19t8 19.5t19 8.5h57v17h-57q-11 0 -19 8t-8 19t8 19.5t19 8.5h32l-64 87q-6 9 -4.5 20t9.5 18q9 6 20 4.5t18 -11.5l74 -97l74 97q6 10 17.5 11.5t20.5 -4.5
q10 -7 11.5 -18t-4.5 -20l-64 -87h30zM775 209q8 0 12.5 -5.5t4.5 -13.5t-5 -12.5t-12 -4.5h-55q-4 0 -7 2q-7 4 -10 11q0 1 -1 3t-1 3v55q0 8 5.5 13.5t13.5 5.5t13.5 -5.5t5.5 -13.5v-4q59 87 39 191t-109 163q-63 40 -136 42t-137 -36q-15 -7 -26 6q-4 7 -2 15t9 11
q68 40 146 41t145.5 -37.5t108.5 -107.5q45 -76 40 -164.5t-59 -159.5h17v2z" />
    <glyph glyph-name="uniE62C" unicode="&#xe62c;" 
d="M408 420h-277q-25 0 -42 17.5t-17 42.5v290q0 25 17 42.5t42 17.5h277q25 0 42.5 -17.5t17.5 -42.5v-290q0 -25 -17.5 -42.5t-42.5 -17.5zM146 495h247v261h-247v-261zM408 -64h-277q-25 0 -42 17.5t-17 41.5v291q0 25 17 42.5t42 17.5h277q25 0 42.5 -17.5t17.5 -42.5
v-291q0 -24 -17.5 -41.5t-42.5 -17.5zM146 10h247v261h-247v-261zM892 420h-276q-25 0 -42.5 17.5t-17.5 42.5v290q0 25 17.5 42.5t42.5 17.5h276q25 0 42.5 -17.5t17.5 -42.5v-290q0 -25 -17.5 -42.5t-42.5 -17.5zM630 495h248v261h-248v-261zM892 -64h-276
q-25 0 -42.5 17.5t-17.5 41.5v291q0 25 17.5 42.5t42.5 17.5h276q25 0 42.5 -17.5t17.5 -42.5v-291q0 -24 -17.5 -41.5t-42.5 -17.5zM630 10h248v261h-248v-261z" />
    <glyph glyph-name="uniE62D" unicode="&#xe62d;" 
d="M944 -20q2 -7 2 -13q0 -17 -12.5 -30t-30.5 -13t-30.5 13t-12.5 30h-1q-9 136 -107.5 229.5t-235.5 93.5t-235.5 -93.5t-107.5 -229.5h-1q0 -17 -12.5 -30t-30.5 -13t-30.5 13t-12.5 30q0 5 2 12q9 121 80 218.5t180 143.5q-52 38 -81.5 95t-29.5 122q0 112 78.5 190.5
t190 78.5t190 -78.5t78.5 -190.5q0 -63 -28 -118.5t-76 -92.5q115 -44 189.5 -143t84.5 -224zM688 558.5q0 75.5 -53.5 129t-129.5 53.5t-129.5 -53.5t-53.5 -129t53.5 -129t129.5 -53.5t129.5 53.5t53.5 129zM310 564q0 -81 57 -138t138 -57t138 57t57 138t-57 138t-138 57
t-138 -57t-57 -138zM129 -76q2 9 5 24.5t16 58.5t29.5 81.5t48 84t68.5 76t93 46t121 4.5q8 0 22 -1t54 -10t76.5 -22.5t81.5 -42t78 -66.5t56 -98.5t25 -134.5h-774z" />
    <glyph glyph-name="uniE62E" unicode="&#xe62e;" 
d="M579 765h347q7 0 12.5 5.5t5.5 12.5t-5.5 12t-12.5 5h-347q-7 0 -12 -5t-5 -12t5 -12.5t12 -5.5zM926 644h-347q-7 0 -12 -5t-5 -12.5t5 -12.5t12 -5h347q7 0 12.5 5t5.5 12.5t-5.5 12.5t-12.5 5zM926 488h-347q-7 0 -12 -5.5t-5 -12.5t5 -12t12 -5h347q7 0 12.5 5
t5.5 12t-5.5 12.5t-12.5 5.5zM423 817h-312q-15 0 -25 -10t-10 -24v-313q0 -14 10 -24t25 -10h312q14 0 24.5 10t10.5 24v313q0 14 -10.5 24t-24.5 10zM423 470h-312v313h312v-313zM423 331h-312q-15 0 -25 -10t-10 -24v-313q0 -14 10 -24t25 -10h312q14 0 24.5 10t10.5 24
v313q0 14 -10.5 24t-24.5 10zM423 -16h-312v313h312v-313zM909 331h-312q-15 0 -25 -10t-10 -24v-313q0 -14 10 -24t25 -10h312q14 0 24.5 10t10.5 24v313q0 14 -10.5 24t-24.5 10zM909 -16h-312v313h312v-313z" />
    <glyph glyph-name="uniE62F" unicode="&#xe62f;" 
d="M512 151q-17 0 -29 12l-384 384q-12 12 -12 29t12 29t29 12t29 -12l355 -355l355 355q12 12 29 12t29 -12t12 -29t-12 -29l-384 -384q-12 -12 -29 -12z" />
    <glyph glyph-name="uniE630" unicode="&#xe630;" 
d="M745 384q0 -17 -12 -29l-384 -384q-12 -12 -29 -12t-29 12t-12 29t12 29l355 355l-355 355q-12 12 -12 29t12 29t29 12t29 -12l384 -384q12 -12 12 -29z" />
    <glyph glyph-name="uniE631" unicode="&#xe631;" 
d="M279 384q0 17 12 29l384 384q12 12 29 12t29 -12t12 -29t-12 -29l-355 -355l355 -355q12 -12 12 -29t-12 -29t-29 -12t-29 12l-384 384q-12 12 -12 29z" />
    <glyph glyph-name="uniE632" unicode="&#xe632;" 
d="M512 617q17 0 29 -12l384 -384q12 -12 12 -29t-12 -29t-29 -12t-29 12l-355 355l-355 -355q-12 -12 -29 -12t-29 12t-12 29t12 29l384 384q12 12 29 12z" />
    <glyph glyph-name="uniE633" unicode="&#xe633;" 
d="M578 752h337q7 0 12 4.5t5 11.5t-5 12t-12 5h-337q-7 0 -12 -5t-5 -12t5 -11.5t12 -4.5zM915 633h-337q-7 0 -12 -4.5t-5 -11.5t5 -12t12 -5h337q7 0 12 5t5 12t-5 11.5t-12 4.5zM915 482h-337q-7 0 -12 -5t-5 -12t5 -12t12 -5h337q7 0 12 5t5 12t-5 12t-12 5zM426 802
h-304q-14 0 -23.5 -10t-9.5 -24v-303q0 -14 9.5 -24t23.5 -10h304q14 0 24 10t10 24v303q0 14 -10 24t-24 10zM426 465h-304v303h304v-303zM426 330h-304q-14 0 -23.5 -10t-9.5 -24v-303q0 -14 9.5 -24t23.5 -10h304q14 0 24 10t10 24v303q0 14 -10 24t-24 10zM426 -7h-304
v303h304v-303zM898 330h-304q-13 0 -23 -10t-10 -24v-303q0 -14 10 -24t23 -10h304q14 0 24 10t10 24v303q0 14 -10 24t-24 10zM898 -7h-304v303h304v-303zM112 785h330v-331h-330v331zM587 310h329v-332h-329v332zM109 310h330v-332h-330v332z" />
    <glyph glyph-name="uniE634" unicode="&#xe634;" horiz-adv-x="1025" 
d="M119 415q0 32 18.5 54t46.5 22h5l-47 118l53 11l45 -129h14l8 141l54 11l-9 -152h611l-28 205q-5 32 -26.5 50t-46.5 12l-695 -141q-29 -4 -46 -29.5t-13 -57.5l48 -323q0 -13 8 -26v234zM904 2h-723q-23 0 -39.5 16.5t-16.5 39.5v371q0 23 16.5 39.5t39.5 16.5h723
q23 0 39.5 -16.5t16.5 -39.5v-371q-2 -24 -18 -40t-38 -16zM268 468h-53l39 -168h48zM389 468h-56l-34 -168h53zM198 300v-65h202v65h-202zM324 207v28h-50v-28h-73v-65h73v-132h50v132h76v65h-76z" />
    <glyph glyph-name="uniE635" unicode="&#xe635;" 
d="M886 761h-39v17q0 24 -17 40t-39 16q-24 0 -40 -17t-16 -39v-17h-447v17q0 24 -17 40t-39 16q-24 0 -40 -17t-16 -39v-17h-39q-29 0 -51 -21.5t-22 -50.5v-682q0 -30 22 -51.5t51 -21.5h749q30 0 51.5 21.5t21.5 51.5v676q4 33 -17.5 55.5t-55.5 22.5zM774 778
q0 8 6 12.5t11 4.5q8 0 12.5 -6t4.5 -11v-73q0 -7 -6 -11.5t-11 -4.5q-7 0 -12 5.5t-5 10.5v73zM210 722v56q0 8 5.5 12.5t11.5 4.5q7 0 11.5 -6t4.5 -11v-73q0 -7 -5.5 -11.5t-10.5 -4.5q-8 0 -12.5 5.5t-4.5 10.5v17zM925 7q0 -17 -11 -28t-28 -11h-749q-17 0 -28 11
t-11 28v564h827v-564zM925 610h-827v73q0 17 11 28t28 11h39v-17q0 -24 17 -39.5t39 -15.5q24 0 40 16.5t16 38.5v17h447v-17q0 -24 17 -39.5t39 -15.5q24 0 40 16.5t16 38.5v17h39q17 0 28 -11t11 -28v-73zM512 493z" />
    <glyph glyph-name="uniE636" unicode="&#xe636;" 
d="M512 -66q-186 0 -318 132t-132 318t132 318t318 132t318 -132t132 -318t-132 -318t-318 -132zM189 420l36 -233l570 70l-8 17l-548 -68l-34 217zM226 471l36 -233l556 67l-7 17l-536 -65l-33 216zM741 575l-472 -49l39 -234l527 66zM546 356q-39 0 -66.5 25t-27.5 60
t27.5 60t66.5 25t67 -25t28 -60t-28 -60t-67 -25zM582 429q-3 21 -35 24l-4 27q13 3 15 -11l15 2q-4 26 -32 21l-2 10h-5l1 -11q-12 -2 -19.5 -10t-5.5 -20q3 -20 34 -24l4 -32q-17 -2 -19 17l-15 -3q2 -14 12 -20.5t24 -4.5l2 -10h5l-1 11q30 6 26 34zM554 406l-5 31
q17 -2 19 -13q2 -14 -14 -18zM524 465q-2 12 13 15l4 -26q-15 1 -17 11z" />
    <glyph glyph-name="uniE637" unicode="&#xe637;" 
d="M455.5 7q-95.5 0 -177 47.5t-129 129t-47.5 177t47.5 177t129 129t177 47.5t177 -47.5t129 -129t47.5 -177t-47.5 -177t-129 -129t-177 -47.5zM455.5 627q-110.5 0 -188.5 -78t-78 -188.5t78 -188.5t188.5 -78t188.5 78t78 188.5t-78 188.5t-188.5 78zM868 -106
q-22 0 -38 16l-184 184q-16 16 -16 38t15.5 38t38 16t38.5 -16l184 -185q16 -15 16 -37.5t-16 -38t-38 -15.5z" />
    <glyph glyph-name="uniE638" unicode="&#xe638;" 
d="M970 666l-59 57l-561 -561l-237 235l-59 -58l295 -294z" />
    <glyph glyph-name="uniE639" unicode="&#xe639;" 
d="M512 -66q-186 0 -318 132t-132 318t132 318t318 132t318 -132t132 -318t-132 -318t-318 -132zM512 791q-110 0 -204 -54.5t-148.5 -148.5t-54.5 -204t54.5 -204t148.5 -148.5t204 -54.5t204 54.5t148.5 148.5t54.5 204t-54.5 204t-148.5 148.5t-204 54.5zM448 223
l-157 156l31 31l126 -127l257 257l30 -30z" />
    <glyph glyph-name="uniE63A" unicode="&#xe63a;" 
d="M512 835q-93 0 -177.5 -36.5t-146 -97.5t-97.5 -146t-36 -178t36 -177.5t97.5 -146t146 -97.5t177.5 -36t177.5 36t146 97.5t97.5 146t36 177.5t-36 178t-97.5 146t-146 97.5t-177.5 36.5zM512 -48q-116 0 -214 57t-154.5 155t-56.5 213.5t57 213.5t154.5 155t213.5 57
t213.5 -57t154.5 -155t57 -213.5t-56.5 -213.5t-154.5 -155t-214 -57zM721 188l-190 189l190 190l-20 19l-189 -189l-189 189l-20 -19l190 -190l-190 -189l20 -19l189 189l189 -189z" />
    <glyph glyph-name="uniE63B" unicode="&#xe63b;" 
d="M744 -147h-4q-81 4 -184 75.5t-204 194.5l-51 61q-101 123 -151.5 236.5t-38.5 191.5q9 52 71 94t113 42q35 0 46 -25q28 -49 53.5 -116t25.5 -95v-3l-1 -2q-8 -21 -41 -40q-17 -9 -24.5 -17t-8.5 -23q-2 -28 95 -147l38 -46q97 -115 125 -119q15 -2 24.5 3.5t22.5 20.5
q25 28 48 31h2h3q28 -6 89.5 -44.5t106.5 -76.5q24 -16 11 -57q-14 -46 -65 -92.5t-101 -46.5z" />
    <glyph glyph-name="uniE63C" unicode="&#xe63c;" 
d="M538.5 738q-89.5 0 -165 -44t-119.5 -119.5t-44 -164.5q0 -51 34 -126t82 -146.5t96.5 -134.5t82.5 -102.5t34 -38.5q13 14 35 40t79 99t100.5 138.5t79 142.5t35.5 128q0 89 -44 164.5t-120 119.5t-165.5 44zM539 273q-68 0 -116.5 48t-48.5 116t48.5 116t116.5 48
t116 -48t48 -116t-48 -116t-116 -48z" />
    <glyph glyph-name="uniE63D" unicode="&#xe63d;" 
d="M601 382l-92 -75v0l-81 66l-366 -306v-21h900v39zM405 392l-343 282v-569zM942 663l-318 -262l338 -278v557zM962 708l-450 -364l-450 364h900z" />
    <glyph glyph-name="uniE63E" unicode="&#xe63e;" 
d="M150 621q0 17 12 29t29 12h641q17 0 29.5 -12t12.5 -29v-641q0 -17 -12.5 -29.5t-29.5 -12.5h-641q-17 0 -29 12.5t-12 29.5v349h-85v-349q0 -52 37 -89t89 -37h641q52 0 89 37t37 89v641q0 52 -37 89t-89 37h-641q-52 0 -89 -37t-37 -89v-207h83zM218 418h84v-85h85v85
h82v84h-82v83h-85v-83h-84v-84zM454 201l-48 48l-62 -63l-62 63l-48 -48l62 -62l-62 -63l48 -47l62 62l63 -62l47 47l-62 63zM637 96h84v-69h-84v69zM637 250h84v-69h-84v69zM554 166h251v-55h-251v55zM554 502h251v-84h-251v84zM554 502z" />
    <glyph glyph-name="uniE63F" unicode="&#xe63f;" 
d="M910 408q0 8 -4 14t-10 6h-55q-6 0 -10 -6t-4 -14v-200q0 -8 4 -13.5t10 -5.5h55q6 0 10 5.5t4 13.5v200zM197 408q0 8 -4 14t-10 6h-55q-6 0 -10 -6t-4 -14v-200q0 -8 4 -13.5t10 -5.5h55q6 0 10 5.5t4 13.5v200zM942 113h-151q-13 0 -22.5 9.5t-9.5 22.5l-1 372
q-1 97 -73 163.5t-173 67.5q-102 -1 -173.5 -67.5t-72.5 -163.5l-1 -323q2 -5 5.5 -14.5t16 -33t28 -40.5t40.5 -29t53 -7q5 17 21 25.5t31 8.5h106q27 0 46 -18.5t19 -44.5v-20q0 -26 -19 -45t-46 -19h-97q-21 0 -37.5 11.5t-23.5 29.5h-5q-4 0 -10.5 0.5t-11.5 1.5
q-28 10 -53 25t-40.5 30t-27.5 28.5t-17 21.5l-5 8h-6h-150q-13 0 -23 9.5t-10 22.5v324q0 13 10 22t23 9h108v17q0 62 18.5 112t45 81t63 54t66.5 33.5t62 16.5t43.5 6.5t17.5 0.5h12q6 0 17.5 -0.5t44 -6.5t62 -16.5t66 -33.5t63 -54t44.5 -81t19 -112v-17h108q13 0 23 -9
t10 -22v-324q0 -13 -10 -22.5t-23 -9.5z" />
    <glyph glyph-name="uniE640" unicode="&#xe640;" 
d="M774 -47h-562q-39 0 -66.5 27t-27.5 66v625q0 39 27.5 66.5t66.5 27.5h437q13 0 22 -9.5t9 -22.5t-9 -22t-22 -9h-437q-13 0 -22 -9t-9 -22v-625q0 -13 9 -22t22 -9h562q13 0 22 9t9 22v500q0 13 9.5 22t22.5 9t22 -9t9 -22v-500q0 -38 -27.5 -65.5t-66.5 -27.5zM774 -47
zM591 452q-13 0 -22.5 9.5t-9.5 22.5t10 22l310 310q9 9 22 9t22 -9t9 -22t-9 -22l-310 -310q-9 -10 -22 -10zM591 452zM462 452h-188q-13 0 -22 9.5t-9 22.5t9 22t22 9h188q13 0 22 -9t9 -22t-9 -22.5t-22 -9.5zM462 452zM649 265h-375q-13 0 -22 9t-9 22t9 22.5t22 9.5
h375q13 0 22 -9.5t9 -22.5t-9 -22t-22 -9zM649 265z" />
    <glyph glyph-name="uniE641" unicode="&#xe641;" 
d="M585 302q-10 0 -18 -8t-8 -17.5t8 -17.5t18 -8q14 0 22.5 8t8.5 18t-9 17.5t-22 7.5zM725 302q-10 0 -18 -8t-8 -17.5t8 -17.5t18 -8q14 0 23 8t9 18t-9.5 17.5t-22.5 7.5zM324 487q-16 0 -27.5 -9t-11.5 -23t12 -23t27 -9q14 0 22.5 9t8.5 23.5t-8.5 23t-22.5 8.5z
M502 423q14 0 23 9t9 23.5t-9 23t-23 8.5q-15 0 -26.5 -9t-11.5 -23t11.5 -23t26.5 -9zM511.5 749q-90.5 0 -173.5 -35.5t-142.5 -95.5t-95 -142.5t-35.5 -173.5t35.5 -173.5t95 -142t142.5 -95t173.5 -35.5t173 35.5t142.5 95t95.5 142t35.5 173.5t-35.5 173.5t-95.5 142.5
t-142.5 95.5t-173 35.5zM406 162q-24 0 -89 13l-89 -45l25 77q-101 71 -101 172q0 90 74.5 153t179.5 63q94 0 167.5 -51t89.5 -128q-13 2 -24 2q-91 0 -154 -59t-63 -143q0 -26 8 -53q-13 -1 -24 -1zM782 73l19 -64l-70 38q-51 -12 -76 -12q-91 0 -154 54t-63 130.5
t63 130.5t154 54q86 0 151 -54.5t65 -130.5q0 -79 -89 -146z" />
    <glyph glyph-name="uniE642" unicode="&#xe642;" 
d="M471 302q-67 -3 -113.5 -35t-46.5 -76q0 -45 47 -74t113 -26q67 3 114 38.5t47 80.5q0 44 -46.5 69.5t-114.5 22.5zM532 152q-22 -27 -57.5 -35t-75.5 12q-11 6 -17 16t-7 17v7q1 0 -0.5 8t2.5 21.5t10.5 26.5t24 24t42.5 14q31 3 53 -8.5t30 -30t6.5 -38.5t-11.5 -34z
M430 197q-12 -1 -20.5 -10t-8.5 -20t9 -17t21.5 -4.5t21 9.5t8.5 19t-8.5 17.5t-22.5 5.5zM472 209q-10 -8 -4 -17q6 -10 16 -2t5 17q-6 10 -17 2zM512 745q-91 0 -173.5 -35.5t-142.5 -95t-95 -142.5t-35 -174t35 -173.5t95 -142.5t142.5 -95t173.5 -35t174 35t142.5 95
t95 142.5t35.5 173.5t-35.5 174t-95 142.5t-142.5 95t-174 35.5zM712 171q-26 -55 -100.5 -85t-146.5 -24q-36 3 -67 10.5t-62.5 22t-52 41.5t-24.5 64v14q0 10 9.5 38t29.5 55q3 4 8 10t20 23t31 31.5t38.5 29.5t43.5 22q85 29 85 -43q-6 -17 -4 -24.5t21 -1.5q3 1 8 3.5
t19.5 6.5t27 6t27 -1t23.5 -11q11 -11 12 -26t-4 -24l-4 -9q-10 -11 11 -15q10 -2 21.5 -8.5t25 -20.5t14.5 -34.5t-10 -49.5zM638 386q-6 0 -10 4t-4 10t4 10.5t10 4.5q4 1 10 1.5t21 -2t26 -9.5t19 -25.5t5 -45.5q0 -1 -1 -2q-1 -12 -14 -12q-6 0 -10.5 4t-4.5 10l1 24
q-5 38 -52 28zM793 307h-1q-2 -18 -20 -18q-9 0 -15 5.5t-6 13.5l4 21q10 34 -7 71q-14 24 -39.5 37.5t-42.5 15t-23 -0.5l-19 -5q-9 0 -15.5 6.5t-6.5 14.5q0 17 16 21v1h2q42 8 73 1q24 -5 45 -17.5t39.5 -35.5t22 -55t-6.5 -76z" />
    <glyph glyph-name="uniE643" unicode="&#xe643;" 
d="M756 -58h-488q-21 0 -36.5 13t-15.5 32v780q0 18 15.5 31.5t36.5 13.5h488q21 0 36.5 -13.5t15.5 -31.5v-780q0 -19 -15.5 -32t-36.5 -13zM512 -13q14 0 24.5 8.5t10.5 21t-10.5 21.5t-24.5 9t-24.5 -9t-10.5 -21.5t10.5 -21t24.5 -8.5zM756 722h-488v-630h488v630z" />
    <glyph glyph-name="uniE644" unicode="&#xe644;" 
d="M163 453q85 291 366 316q3 0 21.5 0.5t28.5 2.5q6 1 13.5 4t17.5 8t15 7q30 12 62 21.5t73.5 17.5t80 2.5t63.5 -25.5q30 -24 39.5 -69t1.5 -92t-28 -88q58 -116 40 -245q-53 -4 -286 -3t-282 0q5 -71 46.5 -119t105.5 -56q108 -13 183 92h218q-22 -62 -59.5 -113
t-89.5 -88.5t-122 -56t-151 -12.5q-52 3 -134 35q-31 -17 -69 -31t-82 -23t-84 0t-63 38q-55 71 10 251q40 112 110.5 216.5t146.5 169.5q1 1 2 2.5t1 3.5q-36 -18 -66 -42.5t-74 -68.5zM926 689q-1 38 -24.5 60t-57.5 24.5t-70 -5.5t-65 -25q110 -44 192 -156q3 8 8.5 24
t8.5 25.5t5.5 24t2.5 28.5zM389 425h345q-3 53 -28.5 90.5t-63 53.5t-80.5 15t-80.5 -19t-63.5 -54.5t-29 -85.5zM135 36q6 -34 32 -51t60 -15t67.5 13t57.5 28q-57 32 -98 84.5t-76 125.5q-2 -6 -7.5 -19t-9 -21t-8.5 -22t-8 -24t-6.5 -24t-4.5 -25.5t-1 -24.5t2 -25z" />
    <glyph glyph-name="uniE645" unicode="&#xe645;" 
d="M839 748h-577h-1h-1q-47 0 -81 -33.5t-34 -80.5v-670q0 -14 10 -23l93 -90q9 -9 21.5 -9t21.5 9l96 92l99 -95q9 -9 21.5 -9t21.5 9l99 95l99 -95q9 -9 21.5 -9t21.5 9l90 86q10 9 10 22v567q38 10 62 41t24 70q0 47 -34.5 80.5t-82.5 33.5zM808 -30l-59 -57l-99 95
q-9 9 -21.5 9t-21.5 -9l-99 -95l-100 95q-9 9 -21.5 9t-21.5 -9l-95 -92l-63 61v657q0 21 15.5 36.5t37.5 15.5h1h1q23 0 39 -15.5t16 -37t-16 -37t-39 -15.5q-13 0 -22 -9t-9 -22t9 -22t22 -9h546v-549zM839 581h-473q13 25 13 53t-13 52h473q23 0 39 -15.5t16 -37t-16 -37
t-39 -15.5zM374 305v-210h27v262q19 39 35 84l-28 10q-26 -85 -82 -166q5 -13 12 -33q18 24 36 53zM455 95h27v19h141v-19h28v173h-196v-173zM482 243h141v-40h-141v40zM482 179h141v-40h-141v40zM488 323h-61v-25h257v25h-68v52h55v25h-55v50h-28v-50h-72v50h-28v-50h-47
v-25h47v-52zM516 375h72v-52h-72v52z" />
    <glyph glyph-name="uniE646" unicode="&#xe646;" 
d="M903 758v-458q0 -41 -19.5 -82.5t-51.5 -79.5q-31 -38 -72 -72q-40 -34 -83 -61q-41 -27 -81 -45q-39 -17 -69 -24l-10 -2l-8 2q-31 6 -71 24q-41 18 -84 45q-42 26 -85 61q-42 34 -75 72q-33 39 -53 79q-20 41 -20 83v458l32 5l360 71l367 -71zM513 768l-5 1l-308 -56
v-289h313v344zM824 424h-311v-412q30 7 65 22q36 16 70 36q35 20 66 45q32 25 56.5 53.5t38.5 59.5q15 31 15 63v133zM824 424z" />
    <glyph glyph-name="uniE647" unicode="&#xe647;" 
d="M960 -25h2v1q-1 -1 -2 -1v0zM599 261l-3 1l-2 33v76q5 4 13.5 10.5t23.5 27.5t18 42q2 1 8 1q15 2 30 25.5t22 46.5l8 23v4q0 3 -1 10t-3 12.5t-6 10t-10 4.5q-25 0 -28 -1l6 75v16v8q0 6 -3.5 22t-10 31t-20 33t-31.5 31t-48 22t-67 9q-144 -1 -154 -62q-2 -13 2 -23h1
q-36 -22 -36 -80q0 -80 10 -89l-24 8q-2 0 -4 -0.5t-7 -3t-8.5 -6t-6.5 -11.5t-2 -19q2 -30 22.5 -61.5t44.5 -34.5h7q0 -12 3 -23t7 -19t9.5 -15t10.5 -11.5t9.5 -7.5t6.5 -5l3 -1v-73l-65 -35l-192 -64q-3 -1 -8 -3t-17 -10.5t-21 -20t-16.5 -32.5t-7.5 -46l2 -111h533
q-49 62 -49 142q0 81 51 144v0zM778 302q-77 0 -131 -54t-54 -130t54 -130t130.5 -54t130.5 54t54 130t-54 130t-130 54v0zM896 152q-58 -57 -114 -115q0 -3 -8 -11q-11 -11 -18 -15q-11 -8 -21 -1q-7 3 -13 11q-12 12 -34.5 34t-35.5 35q-11 11 -12 20t2 13t11 12
q10 10 19 10.5t13 -2.5t12 -12q11 -10 25 -23l20 -21q13 13 47 49t63 64q11 11 20.5 13t13 -0.5t8.5 -7.5q28 -28 2 -53v0z" />
    <glyph glyph-name="uniE648" unicode="&#xe648;" 
d="M641 229q-3 -3 -8 -7t-20 -4.5t-30.5 12t-54.5 53t-70 74.5t-31 35l-3 3q-2 2 -9 6.5t-13.5 5.5t-16.5 -2.5t-19 -12.5q-32 -34 -132 -182q-1 -2 -3.5 -5.5t-10.5 -9.5t-16 -8t-21 3t-25 20q-18 20 -37 25.5t-28 2.5t-16 -8v-201q0 -25 18 -43.5t44 -18.5h746
q26 0 44 18.5t18 43.5v548q-3 -1 -7 -3zM185 304q30 0 51.5 21.5t21.5 51.5q0 15 -6 29l127 157q12 -4 22 -4q16 0 31 7l111 -112q-4 -12 -4 -22q0 -30 21.5 -51.5t51.5 -21.5t51 21.5t21 51.5q0 12 -5 25l174 203q11 -4 22 -4q30 0 51 21t21 51t-21 51.5t-51 21.5
t-51.5 -21.5t-21.5 -51.5q0 -13 5 -26l-172 -202q-13 4 -23 4q-13 0 -26 -5l-114 115q2 9 2 17q0 30 -21 51.5t-51.5 21.5t-51.5 -21.5t-21 -51.5q0 -12 5 -25l-129 -160q-11 3 -20 3q-30 0 -51 -21t-21 -51t21 -51.5t51 -21.5z" />
    <glyph glyph-name="uniE649" unicode="&#xe649;" 
d="M178 834h668q48 0 82 -34t34 -82v-140h-88q-5 36 -22.5 60.5t-40.5 24.5t-40.5 -24.5t-22.5 -60.5h-303q-4 36 -22 60.5t-41 24.5t-40.5 -24.5t-21.5 -60.5h-46q-5 36 -22.5 60t-40.5 24t-40.5 -24t-22.5 -60h-86v140q0 48 34 82t82 34zM962 535v-300h-89q-4 37 -22 61.5
t-41 24.5t-40.5 -24.5t-22.5 -61.5h-48q-4 38 -21.5 62.5t-41 24.5t-41.5 -24.5t-22 -62.5h-43q-4 37 -22 61t-41 24t-40.5 -24t-21.5 -61h-343v300h86q4 -38 22 -63t41.5 -25t41 25t21.5 63h46q4 -37 21.5 -62t41 -25t41 25t22.5 62h302q4 -37 22 -62t41 -25t41 25t22 62
h88zM962 192v-142q0 -48 -34 -82t-82 -34h-668q-48 0 -82 34t-34 82v142h342q5 -37 22.5 -62t41 -25t41 25t21.5 62h43q5 -36 22.5 -60t40.5 -24t40.5 24t22.5 60h48q5 -37 22.5 -61.5t40.5 -24.5t41 24.5t22 61.5h89z" />
    <glyph glyph-name="uniE64A" unicode="&#xe64a;" 
d="M681 665h-338q-116 0 -198.5 -82.5t-82.5 -198.5t82.5 -198.5t198.5 -82.5h338q116 0 198.5 82.5t82.5 198.5t-82.5 198.5t-198.5 82.5zM680.5 215q-69.5 0 -119 49.5t-49.5 119.5t49.5 119.5t119 49.5t119.5 -49.5t50 -119.5t-50 -119.5t-119.5 -49.5zM568 384
q0 -47 33 -79.5t79.5 -32.5t79.5 32.5t33 79.5t-33 79.5t-79.5 32.5t-79.5 -32.5t-33 -79.5z" />
    <glyph glyph-name="uniE64B" unicode="&#xe64b;" horiz-adv-x="1025" 
d="M962 -73v908h-908v-908h692h216zM127 763h763v-218h-75q-4 31 -19 51.5t-34.5 20.5t-34.5 -20.5t-19 -51.5h-256q-4 31 -19 51.5t-34.5 20.5t-34.5 -20.5t-19 -51.5h-39q-4 31 -19 51t-34.5 20t-34 -20t-18.5 -51h-73v218zM127 509h73q3 -32 18 -53.5t35 -21.5t35 21.5
t19 53.5h38q4 -32 19 -53t34.5 -21t34.5 21t19 53h256q4 -32 19 -53t35 -21t35 21t18 53h75v-255h-76q-4 32 -18.5 52.5t-34.5 20.5t-35 -20.5t-19 -52.5h-40q-4 32 -19 53.5t-35 21.5t-35 -21.5t-18 -53.5h-37q-3 31 -18 51.5t-34.5 20.5t-34.5 -20t-19 -52h-290v255z
M729 0h-602v218h290q3 -32 18.5 -52.5t35 -20.5t34.5 20.5t19 52.5h36q4 -31 19 -51t34.5 -20t34 20t18.5 51h41q4 -31 19 -52t34.5 -21t34.5 21t19 52h76v-218h-161z" />
    <glyph glyph-name="uniE64C" unicode="&#xe64c;" 
d="M64 59h893v-123h-893v123zM85 493v-29h38v-366h99v366h35v29h-172zM309 493v-29h38v-366h99v366h35v29h-172zM527 493v-29h37v-366h100v366h34v29h-171zM763 493v-29h37v-366h100v366h35v29h-172zM511 830l-447 -268h893zM565 650q0 -10 -5.5 -17t-13.5 -7h-71
q-8 0 -13.5 7t-5.5 17v51q0 10 5.5 17.5t13.5 7.5h71q8 0 13.5 -7.5t5.5 -17.5v-51zM565 650z" />
    <glyph glyph-name="uniE64D" unicode="&#xe64d;" 
d="M956.5 476.5q-8.5 26.5 -35.5 30.5l-255 44l-114 230q-12 25 -40 25t-40 -25l-114 -230l-255 -46q-28 -4 -36.5 -30.5t11.5 -45.5l184 -171l-48 -247q-4 -28 18 -44q13 -9 26.5 -8.5t20.5 4.5l233 114l231 -114q4 -2 11.5 -3.5t18 -0.5t17.5 8q23 16 18 44l-47 247
l185 172q19 20 10.5 46.5z" />
    <glyph glyph-name="uniE64E" unicode="&#xe64e;" horiz-adv-x="1025" 
d="M564 731q-37 0 -76.5 -6t-60.5 -11l-21 -6q-2 1 -5 4t-14 11.5t-22.5 15t-29.5 14t-36 11t-41 2.5t-46 -8q14 -14 16 -32t2 -42.5t9 -44.5q-37 -34 -64 -69q-18 -24 -20.5 -80t-14.5 -73q-11 -15 -25.5 -19t-27 -4.5t-19.5 -9.5q-5 -6 -6 -32t4 -57.5t17 -47.5
q17 -15 36 -16.5t38 -5t38 -25.5q34 -43 82 -78q3 -3 -2 -12t-9.5 -23t2.5 -39q6 -13 49 -16t61 5q7 6 6 17t3 10q12 -4 17 -6q6 -5 3 -17.5t2 -25t22 -12.5q12 -2 71 0q7 2 10 10t3.5 15t2.5 6q27 -2 53 -2q18 0 36 2.5t28 5.5t30.5 9.5t29.5 8.5t10 -3.5t-2.5 -12.5
t-3.5 -14.5t8 -8.5l49 -2q48 -2 54 10q14 11 13 56t9 48q75 47 102.5 104.5t27.5 147.5q0 71 -29.5 135t-81 111t-126.5 74.5t-161 27.5zM264 480q-11 0 -19 8.5t-8 20t8 19.5t19.5 8t19.5 -8t8 -19.5t-8 -20t-20 -8.5zM740 534q-41 17 -86.5 24t-69.5 5l-25 -1q-12 0 -20 8
t-8 20t8 20t20 8q44 2 89.5 -5t68.5 -15l23 -8q16 -5 21.5 -10.5t5.5 -17.5t-7.5 -20t-19.5 -8zM740 534z" />
    <glyph glyph-name="uniE64F" unicode="&#xe64f;" 
d="M527.5 826q-90.5 0 -173.5 -35.5t-142.5 -95.5t-95 -142.5t-35.5 -173.5t35.5 -173.5t95 -142.5t142.5 -95.5t173.5 -35.5t173.5 35.5t142.5 95.5t95 142.5t35.5 173.5t-35.5 173.5t-95 142.5t-142.5 95.5t-173.5 35.5zM810 198q0 -6 -9 -6h-498q-8 0 -8 6v376q0 6 8 6
h43q8 0 8 -6v-329q0 -6 9 -6h17v86q0 6 13 6h84q13 0 13 -6v-86h27v162q0 5 3.5 8.5t9.5 3.5h84q5 0 9 -3.5t4 -8.5v-162h26v239q0 7 4 12t9 5h84q6 0 9.5 -5t3.5 -12v-239h38q9 0 9 -7v-34z" />
    <glyph glyph-name="uniE650" unicode="&#xe650;" horiz-adv-x="1342" 
d="M447 570l135 -254v-82l68 -42v141l-85 169h238l-85 -169v-182l68 -42v224l136 237h-475zM675.5 858q-98.5 0 -188 -38t-154 -103t-103 -154.5t-38.5 -187.5t38.5 -187.5t103 -154.5t154 -103t188 -38t188 38t154 103t103 154.5t38.5 187.5t-38.5 187.5t-103 154.5
t-154 103t-188 38zM676 -41q-113 0 -209 56t-151.5 151.5t-55.5 208.5t55.5 208.5t151.5 151.5t209 56t208.5 -56t151 -151.5t55.5 -208.5t-55.5 -208.5t-151 -151.5t-208.5 -56z" />
    <glyph glyph-name="uniE651" unicode="&#xe651;" horiz-adv-x="1000" 
d="M400 125h314v-25h-314v25zM400 356h128v-22h-128v22zM400 180h314v-27h-314v27zM400 406h128v-22h-128v22zM400 463h128v-28h-128v28zM400 231h314v-23h-314v23zM506 786q-92 0 -176 -36t-144.5 -97t-96.5 -144.5t-36 -176t36 -176.5t96.5 -144.5t144.5 -96.5t176 -36
t176 36t144.5 96.5t96.5 144.5t36 176.5t-36 176t-96.5 144.5t-144.5 97t-176 36zM301 153h-49v409v49h49h360v-49h-360v-409zM760 463v-363v-46h-46h-314h-46v46v363v46h46h314h46v-46zM557 463h157v-153h-157v153zM400 281h314v-22h-314v22z" />
    <glyph glyph-name="uniE652" unicode="&#xe652;" 
d="M305 203h532v30h-532v-30zM305 263h532v30h-532v-30zM305 114h532v30h-532v-30zM305 352h532v30h-532v-30zM236 441h-40q-10 0 -10 -9v-71q0 -9 10 -9h40q10 0 10 9v71q0 9 -10 9zM236 144h-40q-10 0 -10 -9v-71q0 -9 10 -9h40q10 0 10 9v71q0 9 -10 9zM305 412h532v29
h-532v-29zM305 55h532v30h-532v-30zM236 293h-40q-10 0 -10 -10v-70q0 -10 10 -10h40q10 0 10 10v70q0 10 -10 10zM867 828h-710q-37 0 -63 -26t-26 -63v-714q0 -37 26 -63t63 -26h710q37 0 63 26t26 63v714q0 37 -26 63t-63 26zM900 19q0 -11 -8 -19t-19 -8h-722
q-11 0 -19.5 8t-8.5 19v725q0 12 8.5 20t19.5 8h722q11 0 19 -8t8 -20v-725zM719 620v29h-89v-29h89zM819 709h-248v-179h-30v179h-336q-8 0 -13.5 -5.5t-5.5 -13.5v-171q0 -7 5.5 -12.5t13.5 -5.5h614q8 0 13 5.5t5 12.5v171q0 8 -5 13.5t-13 5.5zM364 649h-59v-119h-30
v149h89v-30zM512 530h-119v149h30v-119h59v119h30v-149zM749 590h-119v-30h119v-30h-119v30h-29v89h29v30h89v-30h30v-59z" />
    <glyph glyph-name="uniE653" unicode="&#xe653;" horiz-adv-x="1144" 
d="M982 340q0 -9 -5 -14q-4 -3 -7 -3h-30q-11 1 -20 -5t-12 -16q-25 -90 -100 -155v-1h-1q-2 -2 -3 -4q-1 0 -2 -2t-1 -3q-1 0 -1 -2q-1 -2 -1 -2.5t-1 -3.5v-3v-1l-1 -90q0 -6 -6 -6h-61q-3 0 -4.5 1.5t-1.5 4.5v13q0 12 -9 20.5t-21 8.5q-3 0 -7 -1q-6 0 -10 -1
q-118 -38 -237 -4q-8 5 -16 5q-12 0 -21 -8.5t-9 -20.5v-12q0 -6 -6 -6h-61q-6 0 -6 6l-1 70q0 2 -1 5q3 17 -10 28q-58 46 -90 109t-32 131q0 88 49 162.5t133.5 117.5t183.5 43q67 0 129 -20l1 -1h3l3 -1h1h1h4h1q3 1 5 1q35 12 57 25l62 36l-9 -76q-6 -35 8 -61v-1l1 -1
q0 -2 1 -2q1 -3 4 -6v0q60 -60 82 -136q5 -16 21 -20q5 -2 9 -2l33 -1q5 0 8.5 -5t3.5 -13v-77zM195 673q3 2 6 2t5 -2q3 -3 3 -8q0 -8 -4 -13q-3 -3 -6 -2h-1l-3 3q-8 10 0 20zM221 616h-1v-1h-1l1 1h1zM971 494h-14q-27 77 -87 138q-3 9 -1 24l11 92v4q0 34 -27.5 48.5
t-57.5 -5.5l-67 -39q-13 -8 -37 -17q-68 21 -138 21q-90 0 -171 -32.5t-140 -89.5q7 14 6 28q0 18 -11 31q-1 0 -1 1t-1 2h-1l-1 1l-1 1v1h-1q-13 11 -30 12q-21 0 -35 -16q-6 -7 -10 -16q-4 7 -6 14t-9.5 11t-15 1.5t-11.5 -9.5t-1 -15q13 -44 52 -60q9 -28 30 -42
q-66 -93 -66 -205q0 -78 34.5 -150.5t97.5 -126.5l1 -66q0 -27 19 -46t46 -19h61q20 0 36 10.5t24 28.5q52 -12 105 -12q59 0 116 14q7 -18 23.5 -29.5t37.5 -11.5h61q27 0 46 19t19 45l1 78q71 66 101 152h12q28 0 48 20q23 22 23 56v77q0 32 -20.5 54.5t-49.5 22.5z
M760 525q-25 0 -42.5 -17.5t-17.5 -42.5t17.5 -42.5t42.5 -17.5t42.5 17.5t17.5 42.5t-17.5 42.5t-42.5 17.5z" />
    <glyph glyph-name="uniE654" unicode="&#xe654;" 
d="M784 782v-1v1zM222 585h158v-158h-158v158zM782 594v189h-690v-726q0 -30 19 -46.5t51 -16.5h695q32 0 53.5 16.5t21.5 46.5v537h-150zM482 624h180v-54h-180v54zM482 436h180v-53h-180v53zM182 624h240v-240h-240v240zM662 114h-477v52h477v-52zM662 234h-480v47h480
v-47zM894 57q0 -15 -10.5 -24t-26.5 -9h-36q-16 0 -27.5 9t-11.5 24v507h112v-507z" />
    <glyph glyph-name="uniE655" unicode="&#xe655;" 
d="M956 399l-52 71q23 18 45 37q6 6 6.5 14.5t-5 14.5t-13.5 6.5t-14 -4.5q-154 -137 -317 -168q-130 -24 -261 18q-94 31 -180 93q-42 30 -67 55q-5 6 -13.5 6.5t-14.5 -5.5t-6 -14t6 -14q19 -20 53 -47l-47 -61q-5 -6 -4 -14.5t8 -13.5q5 -4 12 -4q10 0 16 8l47 62
q68 -47 142 -76l-31 -69q-4 -7 -1 -15t10 -11q4 -2 9 -2q13 0 18 11l33 72q77 -24 155 -27v-77q0 -8 6 -14t14 -6t14 6t6 14v77q41 1 82 9q44 8 87 24l35 -73q5 -12 18 -12q4 0 9 2q7 4 9.5 11.5t-0.5 15.5l-34 70q69 30 136 77l52 -71q6 -8 16 -8q6 0 12 4q6 5 7.5 13.5
t-3.5 14.5z" />
    <glyph glyph-name="uniE656" unicode="&#xe656;" 
d="M819 -128h-614q-57 0 -97 40t-40 97v682l410 -136h68l410 136v-682q0 -57 -40 -97t-97 -40zM548 215l99 1q33 -1 34 28q0 12 -9.5 25.5t-25.5 13.5h-99v24q75 77 95 95q29 26 12 46q-9 11 -23 10.5t-26 -10.5l-93 -84q-66 68 -80 82q-12 11 -27 14.5t-28 -7.5
q-9 -15 -6 -27t12 -21l92 -97v-26h-103q-11 0 -20 -14.5t-8 -26.5q0 -11 8 -18.5t20 -7.5h103v-73h-107q-11 0 -20 -9t-9 -21q-1 -11 7.5 -22.5t21.5 -11.5h107q-1 -25 0 -35q2 -33 37 -33q15 -1 25 9.5t10 22.5v36q89 1 105 0q13 0 21.5 10.5t7.5 23.5q-1 31 -37 31h-97z
M546 623h-68l-410 136q0 57 40 97t97 40h614q57 0 97 -40t40 -97zM546 623z" />
    <glyph glyph-name="uniE657" unicode="&#xe657;" 
d="M676 338q1 29 0 163t4 158q153 -74 206 -216q-10 1 -58.5 -0.5t-53.5 3.5v32h56q-20 39 -50 71t-62 44q3 -18 3.5 -63.5t0 -85.5t0.5 -74q15 0 120.5 -0.5t116.5 3.5q-57 274 -328 356v-118q-9 1 -17.5 0t-18 -0.5t-13.5 3.5v129q-97 11 -151 -3q0 -12 1 -67t-4 -62h-35
v118q-272 -83 -329 -356q11 -4 116.5 -3.5t121.5 0.5v223q-31 -16 -63.5 -50t-41.5 -65q29 9 52 0v-35q-9 1 -57.5 -0.5t-53.5 3.5q63 151 209 213v-324h-283v-67q52 -2 96.5 0t98 1t88.5 -8q0 -29 1 -162.5t-4 -158.5q-73 32 -127.5 89t-78.5 128q14 3 111 3v-38h-56
q2 -4 3.5 -8t4 -8.5t4.5 -7.5t6 -8t5.5 -7t6.5 -7.5t6 -6.5l7 -7q6 -6 6 -7q3 -3 11.5 -12t12.5 -13.5t11 -10t13 -8t12 -1.5v220h-238q53 -277 329 -360v119h38v-129q91 -16 151 0v129q8 -1 17 0t18 0.5t14 -4.5v-115q274 84 328 360h-237q0 -27 -0.5 -115.5t0.5 -108.5
q30 16 60 48t48 68q-10 1 -19.5 0t-20.5 -0.5t-16 3.5q1 6 0 12.5t-0.5 13.5t4.5 9q98 -1 108 -3q-58 -152 -210 -217q1 29 0 166t4 162h144h135v67q-25 0 -143.5 -1t-139.5 4zM631 55h-91q-5 -9 -4 -74.5t0 -78.5h-49v153h-94v489h91q5 9 4 74.5t-1 79.5h49v-154h95v-489z
M431 111h151v381h-147q-5 -30 -4 -188.5t0 -192.5zM487 429q9 -1 17 0t16.5 0.5t12.5 -4.5v-254h-46v258z" />
    <glyph glyph-name="uniE658" unicode="&#xe658;" 
d="M839.5 455q-22.5 0 -38.5 -16t-16 -39v-216q0 -23 16 -39.5t38.5 -16.5t38.5 16.5t16 39.5v216q0 23 -16 39t-38.5 16zM182.5 455q-22.5 0 -38.5 -16t-16 -39v-216q0 -23 16 -39.5t38.5 -16.5t38.5 16.5t16 39.5v216q0 23 -16 39t-38.5 16zM270 454v-395
q0 -18 12.5 -30.5t29.5 -12.5h49v-120q0 -23 16 -39.5t38.5 -16.5t38.5 16.5t16 39.5v120h84v-120q0 -23 16 -39.5t39 -16.5t38.5 16.5t15.5 39.5v120h49q18 0 30 12.5t12 30.5v395h-484zM626 658l45 65q5 7 -1.5 11.5t-11.5 -2.5l-46 -68q-48 19 -101 19t-101 -19l-46 68
q-5 7 -11 2.5t-2 -11.5l45 -65q-54 -25 -88.5 -70t-38.5 -99h484q-4 54 -38.5 99t-88.5 70zM409 556q-11 0 -19 8t-8 19t8 18.5t19 7.5t19 -7.5t8 -18.5t-8 -19t-19 -8zM617 556q-11 0 -19 8t-8 19t8 18.5t19 7.5t18.5 -7.5t7.5 -18.5t-7.5 -19t-18.5 -8z" />
    <glyph glyph-name="uniE659" unicode="&#xe659;" 
d="M644 607q22 25 33.5 61t11.5 58v23q-9 -1 -24.5 -3.5t-51 -19t-57.5 -42.5t-33.5 -61.5t-11.5 -58.5v-23q9 1 24.5 4t51.5 19.5t57 42.5zM751 275q0 54 27 99t72 70q-29 42 -76 67t-88 25q-34 0 -97 -21.5t-70.5 -21.5t-59 20t-92.5 20q-34 1 -69.5 -11t-72 -44.5
t-52.5 -80.5q-18 -53 -22 -114.5t11 -134t50 -138.5q83 -155 161 -155q25 0 79 19t77 19t69 -19t70 -19q35 0 71 26t64 69q16 24 33.5 59.5t27.5 58.5l9 22v6q-54 21 -88 70t-34 109zM751 275z" />
  </font>
</defs>
</svg>
